<svg id="aboutapp" xmlns="http://www.w3.org/2000/svg" width="27.581" height="30.304" viewBox="0 0 27.581 30.304">
  <g id="Group_59" data-name="Group 59" transform="translate(0 0)">
    <g id="Group_58" data-name="Group 58">
      <path id="Path_1028" data-name="Path 1028" d="M188.088,139.985c-2.785,0-4.064,1.651-4.064,2.765a1.183,1.183,0,0,0,1.238,1.176c1.114,0,.66-1.589,2.765-1.589,1.032,0,1.857.454,1.857,1.4,0,1.114-1.155,1.754-1.836,2.332a3.778,3.778,0,0,0-1.382,3.136c0,1.073.289,1.382,1.135,1.382,1.011,0,1.217-.454,1.217-.846a2.592,2.592,0,0,1,1.155-2.579c.557-.433,2.311-1.836,2.311-3.776S190.729,139.985,188.088,139.985Z" transform="translate(-174.493 -131.7)" fill="#2175bd"/>
      <path id="Path_1029" data-name="Path 1029" d="M223.237,343.232a1.589,1.589,0,0,0,0,3.178,1.589,1.589,0,0,0,0-3.178Z" transform="translate(-209.91 -322.917)" fill="#2175bd"/>
      <path id="Path_1030" data-name="Path 1030" d="M48.139,5.788,39.23.65a4.9,4.9,0,0,0-4.878,0L25.444,5.788A4.9,4.9,0,0,0,23,10.018V20.285a4.9,4.9,0,0,0,2.443,4.23l8.908,5.137a4.9,4.9,0,0,0,4.878,0l8.908-5.137a4.9,4.9,0,0,0,2.443-4.23V10.018A4.9,4.9,0,0,0,48.139,5.788Zm.076,14.5a2.522,2.522,0,0,1-1.259,2.179L38.048,27.6a2.522,2.522,0,0,1-2.513,0l-8.908-5.137a2.522,2.522,0,0,1-1.259-2.179V10.018a2.522,2.522,0,0,1,1.259-2.179L35.535,2.7a2.522,2.522,0,0,1,2.513,0l8.908,5.137a2.522,2.522,0,0,1,1.259,2.179Z" transform="translate(-23.001 0)" fill="#2175bd"/>
    </g>
  </g>
</svg>
