<svg xmlns="http://www.w3.org/2000/svg" width="32" height="32" viewBox="0 0 32 32">
  <g id="Group_55" data-name="Group 55" transform="translate(-92 -295)">
    <g id="Ellipse_240" data-name="Ellipse 240" transform="translate(92 295)" fill="#2175bd" stroke="#fff" stroke-width="1.5">
      <circle cx="16" cy="16" r="16" stroke="none"/>
      <circle cx="16" cy="16" r="15.25" fill="none"/>
    </g>
    <path id="more" d="M17.674,7.759H11.208V1.293A1.294,1.294,0,0,0,9.915,0H9.053A1.294,1.294,0,0,0,7.759,1.293V7.759H1.293A1.294,1.294,0,0,0,0,9.053v.862a1.294,1.294,0,0,0,1.293,1.293H7.759v6.466a1.294,1.294,0,0,0,1.293,1.293h.862a1.294,1.294,0,0,0,1.293-1.293V11.208h6.466a1.294,1.294,0,0,0,1.293-1.293V9.053A1.294,1.294,0,0,0,17.674,7.759Zm0,0" transform="translate(99.025 302.025)" fill="#fff"/>
  </g>
</svg>
