<svg xmlns="http://www.w3.org/2000/svg" width="26.5" height="35.5" viewBox="0 0 26.5 35.5">
  <g id="agenda" transform="translate(-63.75 0.25)" style="isolation: isolate">
    <g id="Group_31" data-name="Group 31" transform="translate(64)">
      <path id="Path_990" data-name="Path 990" d="M87.111,0H66.889A2.906,2.906,0,0,0,64,2.917V32.083A2.906,2.906,0,0,0,66.889,35H87.111A2.906,2.906,0,0,0,90,32.083V2.917A2.906,2.906,0,0,0,87.111,0ZM77,1.458h4.333V9.177L79.677,7.505a.717.717,0,0,0-1.021,0L77,9.177ZM68.333,33.542H66.889a1.453,1.453,0,0,1-1.444-1.458V2.917a1.453,1.453,0,0,1,1.444-1.458h1.444Zm20.222-1.458a1.453,1.453,0,0,1-1.444,1.458H69.778V1.458h5.778v9.479a.729.729,0,0,0,.446.674.716.716,0,0,0,.787-.158l2.378-2.4,2.378,2.4a.719.719,0,0,0,.511.214.709.709,0,0,0,.276-.056.728.728,0,0,0,.446-.674V1.458h4.333a1.453,1.453,0,0,1,1.444,1.458V32.083Z" transform="translate(-64)" fill="#2175bd" stroke="#2175bd" stroke-width="0.5"/>
    </g>
  </g>
</svg>
