<svg id="airline" xmlns="http://www.w3.org/2000/svg" width="16.1" height="16.1" viewBox="0 0 16.1 16.1">
  <path id="Path_119090" data-name="Path 119090" d="M.472,482H15.628a.477.477,0,0,1,0,.955H.472a.477.477,0,0,1,0-.955Z" transform="translate(0 -466.855)" fill="#2175bd"/>
  <path id="Path_119091" data-name="Path 119091" d="M46.277,5.77,41.7,3.479,47.858.192A1.643,1.643,0,0,1,48.629,0a1.416,1.416,0,0,1,1,2.417Z" transform="translate(-35.272 0)" fill="#2175bd"/>
  <path id="Path_119092" data-name="Path 119092" d="M12.127,87.8.713,82.026A1.3,1.3,0,0,1,0,80.859a2.034,2.034,0,0,1,2.942-1.84l10.5,5.315.779-1.183a.47.47,0,0,1,.392-.213h1.01a.475.475,0,0,1,.472.477v1.9A2.746,2.746,0,0,1,12.127,87.8Z" transform="translate(0 -76.361)" fill="#2175bd"/>
</svg>
