<svg id="airplane-icon" xmlns="http://www.w3.org/2000/svg" width="17.372" height="13.753" viewBox="0 0 17.372 13.753">
  <path id="Path_119098" data-name="Path 119098" d="M128.893,3.961l-3.359-.134,3.451-3.45a1.276,1.276,0,0,1,.91-.378.745.745,0,0,1,.645,1.118Z" transform="translate(-118.634 0)" fill="#2175bd"/>
  <path id="Path_119099" data-name="Path 119099" d="M2.161,161.666l11.71.4.932-1.209a.534.534,0,0,1,.423-.2h1.635a.543.543,0,0,1,.393.161.4.4,0,0,1,.106.365l-.525,2.29.525,2.251a.4.4,0,0,1-.105.366.543.543,0,0,1-.394.161H15.227a.534.534,0,0,1-.423-.2l-.932-1.209-11.71.4A1.969,1.969,0,0,1,0,163.463H0A1.969,1.969,0,0,1,2.161,161.666Z" transform="translate(0 -156.567)" fill="#2175bd"/>
  <path id="Path_119100" data-name="Path 119100" d="M130.58,340.3a.744.744,0,0,1,0,.746c-.315.551-1.112.441-1.555,0l-3.452-3.451,3.359-.134Z" transform="translate(-118.675 -327.665)" fill="#2175bd"/>
</svg>
