<svg xmlns="http://www.w3.org/2000/svg" width="54.216" height="22.26" viewBox="0 0 54.216 22.26">
  <g id="applepay" transform="translate(0 0)">
    <path id="Path_446" data-name="Path 446" d="M20.282,69.319c-2.612,1.9-2.771,5.433.385,7.252a9.8,9.8,0,0,1-2.591,4.1,2.054,2.054,0,0,1-2.368.342,4.345,4.345,0,0,0-3.948.014,1.99,1.99,0,0,1-2.3-.334C7.185,78.663,5.43,74.305,6.41,71.1a4.293,4.293,0,0,1,3.684-3.317,4.018,4.018,0,0,1,1.988.293,3.322,3.322,0,0,0,2.883-.025,4.1,4.1,0,0,1,3.883.141A11.71,11.71,0,0,1,20.282,69.319Z" transform="translate(-6.132 -63.367)" fill="#040404"/>
    <path id="Path_447" data-name="Path 447" d="M233.01,48.185V31.761a3.616,3.616,0,0,1,.436-.057c1.961,0,3.923-.039,5.884.01a5.1,5.1,0,0,1,5.2,4.719c.28,2.979-1.27,5.336-3.962,5.96a9.215,9.215,0,0,1-1.832.18c-1.044.028-2.09.008-3.225.008v5.6Zm2.524-7.676a40.843,40.843,0,0,0,4.149-.244,2.762,2.762,0,0,0,2.275-2.917c.067-1.674-.6-2.948-2.019-3.235a35.48,35.48,0,0,0-4.406-.362Z" transform="translate(-213.605 -30.5)" fill="#040404"/>
    <path id="Path_448" data-name="Path 448" d="M386.122,95.022h-2.239V93.286l-.25-.139a1.041,1.041,0,0,1-.112.321,4.6,4.6,0,0,1-5.614,1.26,3.25,3.25,0,0,1-1.927-3.2,2.858,2.858,0,0,1,2.071-2.844,17.865,17.865,0,0,1,3.141-.588c.81-.109,1.634-.114,2.439-.163a2.128,2.128,0,0,0-1.055-2.791,2.789,2.789,0,0,0-3.473.886.881.881,0,0,1-.995.576c-.472-.037-.949-.008-1.662-.008a7.418,7.418,0,0,1,.737-1.747,4.713,4.713,0,0,1,1.593-1.345,6.057,6.057,0,0,1,5.418.05,3.311,3.311,0,0,1,1.984,3.053c.046,2.713.014,5.429.011,8.142A1.509,1.509,0,0,1,386.122,95.022ZM383.7,89.644c-.972.061-1.881.091-2.783.185a6.27,6.27,0,0,0-1.522.336,1.391,1.391,0,0,0-.938,1.378,1.432,1.432,0,0,0,.9,1.412,3.278,3.278,0,0,0,3.314-.316A2.768,2.768,0,0,0,383.7,89.644Z" transform="translate(-344.346 -77.32)" fill="#040404"/>
    <path id="Path_449" data-name="Path 449" d="M508.847,101.23V99.379c.249,0,.488,0,.727,0a2.318,2.318,0,0,0,2.151-3.1q-1.894-5.281-3.8-10.557c-.083-.232-.159-.466-.278-.819.855,0,1.622-.035,2.381.027.162.014.358.36.43.587.878,2.784,1.735,5.574,2.6,8.362.063.205.146.4.277.76.131-.357.215-.556.279-.762.865-2.787,1.739-5.572,2.579-8.367.144-.481.36-.662.859-.627.606.043,1.217.01,1.917.01-.367,1.051-.692,2-1.026,2.936-1.13,3.18-2.251,6.363-3.4,9.535a12.109,12.109,0,0,1-1,2.166A4.13,4.13,0,0,1,508.847,101.23Z" transform="translate(-464.755 -79.142)" fill="#040404"/>
    <path id="Path_450" data-name="Path 450" d="M94.766,17.79c.489,1.651-1.542,4.35-3.412,3.983C90.988,20,92.763,17.926,94.766,17.79Z" transform="translate(-84.021 -17.79)" fill="#040404"/>
  </g>
</svg>
