<svg id="Group_46336" data-name="Group 46336" xmlns="http://www.w3.org/2000/svg" width="23" height="19" viewBox="0 0 23 19">
  <path id="Path_20235" data-name="Path 20235" d="M130.414,214.3c-2.892,0-5.783.006-8.675,0a2.792,2.792,0,0,1-2.815-2.812q0-6.686,0-13.371a2.783,2.783,0,0,1,2.789-2.8q8.695-.02,17.39,0a2.8,2.8,0,0,1,2.814,2.821q.008,6.706,0,13.411a2.791,2.791,0,0,1-2.789,2.757C136.224,214.31,133.319,214.3,130.414,214.3Zm-.033-1.878v.006q4.237,0,8.475,0c.816,0,1.165-.349,1.173-1.164,0-.358,0-.716,0-1.074q-.012-3.853-.022-7.707c0-1.418.018-2.836.015-4.254a.974.974,0,0,0-1.047-1.051c-.12,0-.241,0-.361,0H122.146c-1.018,0-1.343.321-1.343,1.332q0,3.015,0,6.029,0,3.343,0,6.686c0,.853.355,1.2,1.222,1.2Z" transform="translate(-118.922 -195.307)" fill="#2175bd"/>
  <path id="Path_20237" data-name="Path 20237" d="M280.129,238.917q0-3.566,0-7.133c0-.619.109-.72.764-.723,1.173-.006,1.168-.006,1.175,1.076.007,1.223.037,2.447.035,3.67,0,1.938-.021,3.877-.038,5.815,0,.42-.147.564-.591.574-1.515.034-1.343-.025-1.345-1.185C280.128,240.314,280.13,239.616,280.129,238.917Z" transform="translate(-262.896 -227.124)" fill="#2175bd"/>
  <path id="Path_20238" data-name="Path 20238" d="M156.662,236.59q0,2.466,0,4.932c0,.512-.131.633-.68.647-1.245.03-1.252.024-1.252-1.159q0-2.893,0-5.786c0-1.19,0-2.379,0-3.569,0-.484.144-.616.662-.626,1.411-.027,1.271.046,1.268,1.138,0,1.474,0,2.949,0,4.424Z" transform="translate(-150.903 -227.092)" fill="#2175bd"/>
  <path id="Path_20239" data-name="Path 20239" d="M201.3,235.553c0,1.235,0,2.47,0,3.7,0,.538-.15.685-.682.7-1.268.025-1.277.017-1.277-1.27q0-3.4,0-6.8c0-.682.131-.809.826-.81,1.134,0,1.135,0,1.135,1.149Q201.3,233.887,201.3,235.553Z" transform="translate(-190.747 -227.389)" fill="#2175bd"/>
  <path id="Path_20240" data-name="Path 20240" d="M182.4,235.634q0,1.9,0,3.793c0,.415-.173.641-.473.64s-.486-.245-.487-.641q-.006-3.772,0-7.543c0-.055,0-.11,0-.165.028-.3.181-.513.488-.508.324.006.477.213.476.548C182.4,233.05,182.4,234.342,182.4,235.634Z" transform="translate(-174.745 -227.513)" fill="#2175bd"/>
  <path id="Path_20241" data-name="Path 20241" d="M244.269,235.617c0-1.264,0-2.528,0-3.792,0-.342.135-.584.487-.583s.485.263.485.592q0,3.834,0,7.669c0,.331-.142.584-.5.582s-.474-.264-.473-.6C244.271,238.2,244.269,236.908,244.269,235.617Z" transform="translate(-230.852 -227.543)" fill="#2175bd"/>
  <path id="Path_20242" data-name="Path 20242" d="M262.253,237.266c0-1.812,0-3.623,0-5.435,0-.339.113-.589.473-.592s.487.255.49.585c0,.082,0,.165,0,.248q0,.6,0,1.2,0,2.905,0,5.811c0,.1,0,.193,0,.289-.007.47-.177.722-.488.726s-.471-.233-.472-.723Q262.251,238.318,262.253,237.266Z" transform="translate(-246.91 -227.539)" fill="#2175bd"/>
  <path id="Path_20243" data-name="Path 20243" d="M227.241,235.665q0,1.835,0,3.669c0,.123.034.287-.03.361-.138.159-.327.367-.5.373-.141.005-.3-.247-.431-.4-.041-.05-.012-.16-.012-.242q0-3.731,0-7.463c0-.055,0-.11,0-.165,0-.324.155-.546.484-.546s.486.23.489.546c.007.77,0,1.539,0,2.309Q227.241,234.884,227.241,235.665Z" transform="translate(-214.77 -227.547)" fill="#2175bd"/>
  <path id="Path_20244" data-name="Path 20244" d="M182.556,319.285c-.25.429-.791.533-1,.088a1.893,1.893,0,0,1,.023-1.739.691.691,0,0,1,.52-.3.632.632,0,0,1,.458.321A2.4,2.4,0,0,1,182.556,319.285Zm-.5-1.574a1.413,1.413,0,0,0-.011,1.574A1.508,1.508,0,0,0,182.06,317.711Z" transform="translate(-174.676 -304.444)" fill="#2175bd"/>
  <path id="Path_20245" data-name="Path 20245" d="M258.948,319.333h-.4l-.039-.514-.39-.021-.417-.025a5.229,5.229,0,0,1,.777-1.677c.044-.083.264-.073.467-.122,0,.382-.017.709.007,1.031C258.967,318.158,258.948,319.333,258.948,319.333Zm-.44-.946v-.628l-.056-.016-.316.644Z" transform="translate(-242.854 -304.121)" fill="#2175bd"/>
  <path id="Path_20246" data-name="Path 20246" d="M219.93,317.355c.075-.088.142-.246.251-.285a.633.633,0,0,1,.886.743,6.358,6.358,0,0,1-.528,1.164l.544.038c.072.436-.042.47-1.228.35a2.4,2.4,0,0,1,.163-.469,7.406,7.406,0,0,0,.445-.64,1.115,1.115,0,0,0,.115-.683C220.55,317.469,220.219,317.445,219.93,317.355Z" transform="translate(-209.056 -304.164)" fill="#2175bd"/>
  <path id="Path_20247" data-name="Path 20247" d="M238.888,319.14c.115-.05.234-.093.345-.152.152-.081.3-.176.444-.264-.1-.14-.193-.284-.3-.419-.052-.067-.152-.109-.177-.181-.015-.044.066-.126.109-.187.1-.135.194-.269.291-.4l-.557-.255c.015-.031.04-.191.121-.228a.608.608,0,0,1,.785.149.568.568,0,0,1-.125.835c.344.456.393.78.165,1.066S239.39,319.448,238.888,319.14Z" transform="translate(-226.053 -304.121)" fill="#2175bd"/>
  <path id="Path_20248" data-name="Path 20248" d="M202.206,316.8c.016.2.032.306.032.413,0,.641,0,1.282,0,1.951l-.425.051v-1.894l-.4.134-.115-.348Z" transform="translate(-192.482 -303.97)" fill="#2175bd"/>
</svg>
