<svg xmlns="http://www.w3.org/2000/svg" width="22" height="18" viewBox="0 0 22 18">
  <path id="XMLID_874_" d="M20.926,55.889v-.42a2.205,2.205,0,0,0-1-1.848V49.044a2.185,2.185,0,0,0-2.181-2.184H4.257a2.185,2.185,0,0,0-2.181,2.184v4.577a2.205,2.205,0,0,0-1,1.848v.42A1.445,1.445,0,0,0,0,57.284v4.91a1.443,1.443,0,0,0,1.372,1.441v.581a.643.643,0,1,0,1.287,0v-.579H19.341v.579a.643.643,0,1,0,1.287,0v-.581A1.443,1.443,0,0,0,22,62.194v-4.91A1.445,1.445,0,0,0,20.926,55.889ZM3.363,49.044a.9.9,0,0,1,.894-.9H17.743a.9.9,0,0,1,.894.9v4.22h-.858V52.129a1.442,1.442,0,0,0-1.439-1.441H12.878a1.442,1.442,0,0,0-1.439,1.441v1.136h-.878V52.129a1.442,1.442,0,0,0-1.439-1.441H5.66a1.442,1.442,0,0,0-1.439,1.441v1.136H3.363Zm13.13,3.085v.983a.153.153,0,0,1-.153.153H12.878a.153.153,0,0,1-.153-.153v-.983a.153.153,0,0,1,.153-.153H16.34a.153.153,0,0,1,.153.153Zm-7.218,0v.983a.153.153,0,0,1-.153.153H5.66a.153.153,0,0,1-.153-.153v-.983a.153.153,0,0,1,.153-.153H9.122A.153.153,0,0,1,9.274,52.129Zm-6.914,3.34a.917.917,0,0,1,.915-.916H18.724a.917.917,0,0,1,.915.916v.372H2.361Zm18.353,6.725a.154.154,0,0,1-.154.154H1.44a.154.154,0,0,1-.154-.154v-4.91a.154.154,0,0,1,.154-.154H20.56a.154.154,0,0,1,.154.154v4.91Z" transform="translate(0 -46.86)" fill="#a2a2a2"/>
</svg>
