<svg id="XMLID_105_" xmlns="http://www.w3.org/2000/svg" width="75.596" height="68.741" viewBox="0 0 75.596 68.741">
  <path id="XMLID_106_" d="M263.354,48.377a3.436,3.436,0,0,0-4.859,4.859,29.847,29.847,0,0,1,0,42.161,3.436,3.436,0,1,0,4.859,4.859,36.685,36.685,0,0,0,0-51.88Z" transform="translate(-198.503 -39.947)" fill="#2175bd"/>
  <path id="XMLID_107_" d="M222.3,89.429a3.436,3.436,0,0,0-4.859,4.859,16.513,16.513,0,0,1,0,23.353,3.436,3.436,0,1,0,4.859,4.86,23.385,23.385,0,0,0,0-33.072Z" transform="translate(-166.856 -71.594)" fill="#2175bd"/>
  <path id="XMLID_108_" d="M40.089,14.963H3.436A3.436,3.436,0,0,0,0,18.4V80.268A3.436,3.436,0,0,0,3.436,83.7H40.089a3.436,3.436,0,0,0,3.436-3.436V18.4A3.436,3.436,0,0,0,40.089,14.963ZM6.872,35.58h29.78V63.07H6.872Zm29.78-13.745v6.872H6.872V21.835Zm-29.78,55V69.942h29.78v6.889Z" transform="translate(0 -14.963)" fill="#2175bd"/>
</svg>
