<svg xmlns="http://www.w3.org/2000/svg" width="66.44" height="66.431" viewBox="0 0 66.44 66.431">
  <path id="XMLID_127_" d="M1.007,48.05,15.058,34a3.436,3.436,0,0,1,4.859,0l6.974,6.974L40.947,26.918l-6.974-6.974a3.436,3.436,0,0,1,0-4.859L48.031,1.027a3.436,3.436,0,0,1,4.859,0l9.39,9.389c4.293,4.293,5.3,11.108,2.848,19.191C62.9,36.95,57.994,44.668,51.321,51.34,42,60.661,30.569,66.451,21.488,66.451A15.25,15.25,0,0,1,10.4,62.3L1.007,52.909A3.436,3.436,0,0,1,1.007,48.05Zm14.249,9.39a8.479,8.479,0,0,0,6.231,2.14c7.214,0,17.017-5.141,24.974-13.1,5.888-5.888,10.182-12.59,12.09-18.871,1.659-5.46,1.246-9.956-1.132-12.334l-6.96-6.96-9.2,9.2,6.974,6.974a3.436,3.436,0,0,1,0,4.859L29.322,48.261a3.437,3.437,0,0,1-4.859,0l-6.974-6.974L8.3,50.479Z" transform="translate(-0.001 -0.021)" fill="#2175bd"/>
</svg>
