<svg id="favorite" xmlns="http://www.w3.org/2000/svg" width="68.962" height="77.543" viewBox="0 0 68.962 77.543">
  <path id="Path_1045" data-name="Path 1045" d="M68.515,38.8a.047.047,0,0,1,0-.055l8.822-12.051a6.7,6.7,0,0,0-5.382-10.658,6.945,6.945,0,0,0-.748.041L56.353,17.691a.05.05,0,0,1-.042-.028L50.286,4A6.7,6.7,0,0,0,38.027,4L32,17.662a.05.05,0,0,1-.048.028L17.105,16.075a6.945,6.945,0,0,0-.748-.041,6.7,6.7,0,0,0-5.382,10.658L19.8,38.744a.047.047,0,0,1,0,.055L10.975,50.851a6.7,6.7,0,0,0,5.383,10.658,6.944,6.944,0,0,0,.748-.041L31.96,59.853a.049.049,0,0,1,.042.028l6.026,13.666a6.7,6.7,0,0,0,12.259,0l6.026-13.666a.045.045,0,0,1,.048-.028l14.848,1.615a6.7,6.7,0,0,0,6.129-10.617Zm3.411,16.055L57.079,53.24A6.7,6.7,0,0,0,50.225,57.2L44.2,70.884a.114.114,0,0,1-.041.007l-.043-.028L38.087,57.2a6.7,6.7,0,0,0-6.854-3.957L16.366,54.864a.073.073,0,0,1-.024-.083l8.822-12.051a6.674,6.674,0,0,0,0-7.915l-8.84-12.063a.075.075,0,0,1,.061-.062L31.234,24.3a6.723,6.723,0,0,0,.726.039h0a6.7,6.7,0,0,0,6.128-4L44.113,6.681l.043-.028.043.028,6.026,13.666A6.7,6.7,0,0,0,57.079,24.3L71.946,22.68a.074.074,0,0,1,.023.083L63.147,34.814a6.676,6.676,0,0,0,0,7.915l8.84,12.063A.074.074,0,0,1,71.927,54.854Z" transform="translate(-9.675 0)" fill="#2175bd"/>
</svg>
