<svg xmlns="http://www.w3.org/2000/svg" width="75.596" height="57.27" viewBox="0 0 75.596 57.27">
  <path id="XMLID_453_" d="M75.593,43.376c0-.067-.005-.133-.01-.2,0-.048-.007-.1-.012-.143-.007-.063-.018-.126-.029-.189s-.017-.1-.028-.149-.028-.115-.044-.172-.028-.1-.045-.156-.037-.1-.057-.155-.042-.11-.065-.163-.044-.092-.066-.138-.056-.113-.088-.167-.05-.083-.075-.124-.071-.111-.109-.165c-.012-.017-.021-.034-.034-.051s-.038-.045-.056-.069c-.038-.049-.077-.1-.117-.144s-.075-.084-.113-.125-.074-.076-.112-.113-.09-.084-.137-.124-.074-.062-.112-.091-.1-.077-.152-.114-.081-.055-.122-.081-.1-.064-.154-.094-.095-.051-.143-.076-.1-.049-.147-.071-.109-.047-.165-.068-.092-.035-.139-.051-.119-.038-.18-.055-.094-.025-.141-.036-.12-.026-.18-.037-.105-.017-.159-.024-.11-.013-.167-.017-.123-.008-.186-.009c-.03,0-.059,0-.089,0H3.436c-.03,0-.06,0-.09,0-.061,0-.123,0-.183.009s-.113.011-.169.018-.1.015-.156.024-.122.023-.183.037-.092.023-.138.036c-.062.017-.123.035-.183.056s-.091.033-.136.05-.113.045-.168.07-.1.045-.144.069-.1.05-.145.077-.1.06-.152.092-.084.054-.125.083-.1.073-.149.112-.077.061-.114.093-.091.08-.135.123-.077.075-.114.114-.076.081-.112.123-.079.1-.118.144c-.018.024-.038.045-.056.069s-.022.034-.034.051c-.038.054-.074.109-.109.165s-.052.082-.076.124-.059.111-.087.167S.314,42,.294,42.05s-.044.108-.065.163-.04.1-.057.155-.031.1-.045.156S.1,42.639.082,42.7s-.019.1-.028.149-.022.126-.029.189c-.005.047-.009.1-.012.143-.005.066-.009.133-.01.2,0,.02,0,.04,0,.06v50.4A3.436,3.436,0,0,0,3.436,97.27H72.16A3.436,3.436,0,0,0,75.6,93.834v-50.4C75.6,43.416,75.594,43.4,75.593,43.376Zm-13.929,3.5L37.8,64.374l-23.866-17.5ZM6.872,90.4V50.217L35.766,71.406a3.436,3.436,0,0,0,4.064,0L68.724,50.217V90.4Z" transform="translate(0 -40)" fill="#2175bd"/>
</svg>
