<svg xmlns="http://www.w3.org/2000/svg" width="45" height="43" viewBox="0 0 45 43">
  <g id="bill" transform="translate(0.5 0.11)">
    <path id="Path_134688" data-name="Path 134688" d="M348.777,42.27l.058,0a.715.715,0,0,0,.1-.007A1.6,1.6,0,0,1,350.5,43.86a.714.714,0,0,0,1.429,0,3.03,3.03,0,0,0-2.378-2.955v-.687a.714.714,0,0,0-1.429,0v.719a3.025,3.025,0,0,0,.781,5.947,1.6,1.6,0,1,1-1.6,1.6.714.714,0,1,0-1.429,0,3.03,3.03,0,0,0,2.244,2.922v.783a.714.714,0,0,0,1.429,0v-.75a3.025,3.025,0,0,0-.647-5.98,1.6,1.6,0,0,1-.125-3.186Zm0,0" transform="translate(-315.068 -35.62)" fill="#2175bd" stroke="#2175bd" stroke-width="1"/>
    <path id="Path_134689" data-name="Path 134689" d="M33.879.39A10.23,10.23,0,0,0,24.349,7.1H6.656a.747.747,0,0,0-.713.747L5.775,32.92H.731A.7.7,0,0,0,0,33.6v3.182a5.608,5.608,0,0,0,5.346,5.591v.016h22.01v-.021c.178.007.252.021.364.021h.015a5.607,5.607,0,0,0,5.59-5.614V20.69c.178.01.367.015.551.015a10.157,10.157,0,0,0,0-20.314ZM5.617,40.961h0a4.2,4.2,0,0,1-4.187-4.185V34.35H22.1v2.416a5.614,5.614,0,0,0,1.651,3.973c.075.075.168.133.246.222ZM31.9,36.776a4.179,4.179,0,0,1-4.165,4.185h-.014a4.21,4.21,0,0,1-4.2-4.194V33.6a.659.659,0,0,0-.68-.681H7.2L7.364,8.53H23.953a10.766,10.766,0,0,0-.2,1.985,10.1,10.1,0,0,0,.86,4.09H17.885a.715.715,0,0,0,0,1.429h7.507A10.06,10.06,0,0,0,31.9,20.511Zm1.979-17.5a8.718,8.718,0,1,1,8.7-8.718A8.706,8.706,0,0,1,33.879,19.276Zm0,0" fill="#2175bd" stroke="#2175bd" stroke-width="1"/>
    <path id="Path_134690" data-name="Path 134690" d="M126.048,212.746a2.215,2.215,0,1,0,2.287,2.214A2.254,2.254,0,0,0,126.048,212.746Zm0,3a.788.788,0,1,1,.858-.785A.825.825,0,0,1,126.048,215.746Zm0,0" transform="translate(-112.736 -193.383)" fill="#2175bd" stroke="#2175bd" stroke-width="1"/>
    <path id="Path_134691" data-name="Path 134691" d="M192.719,230.218a.714.714,0,0,0,.714.714h9.525a.714.714,0,0,0,0-1.429h-9.525A.714.714,0,0,0,192.719,230.218Zm0,0" transform="translate(-175.559 -208.644)" fill="#2175bd" stroke="#2175bd" stroke-width="1"/>
    <path id="Path_134692" data-name="Path 134692" d="M126.048,143.2a2.216,2.216,0,1,0,2.287,2.215A2.254,2.254,0,0,0,126.048,143.2Zm0,3a.789.789,0,1,1,.858-.785.825.825,0,0,1-.858.785Zm0,0" transform="translate(-112.736 -130.053)" fill="#2175bd" stroke="#2175bd" stroke-width="1"/>
    <path id="Path_134693" data-name="Path 134693" d="M126.048,282.281a2.215,2.215,0,1,0,2.287,2.214A2.254,2.254,0,0,0,126.048,282.281Zm0,3a.788.788,0,1,1,.858-.785A.825.825,0,0,1,126.048,285.281Zm0,0" transform="translate(-112.736 -256.706)" fill="#2175bd" stroke="#2175bd" stroke-width="1"/>
    <path id="Path_134694" data-name="Path 134694" d="M202.959,299.5h-9.525a.714.714,0,0,0,0,1.429h9.525a.714.714,0,1,0,0-1.429Zm0,0" transform="translate(-175.559 -272.391)" fill="#2175bd" stroke="#2175bd" stroke-width="1"/>
  </g>
</svg>
