<svg xmlns="http://www.w3.org/2000/svg" width="27" height="24" viewBox="0 0 27 24">
  <g id="Group_44096" data-name="Group 44096" transform="translate(3358.231 -2298)">
    <path id="Subtraction_2" data-name="Subtraction 2" d="M14.331,18h0L9.391,15.691V6.75A2.3,2.3,0,0,0,7.043,4.5H0V2.25A2.3,2.3,0,0,1,2.348,0h13.3A2.3,2.3,0,0,1,18,2.25V12a2.3,2.3,0,0,1-2.348,2.251H13.5L14.331,18Z" transform="translate(-3349.231 2298)" fill="#2175bd"/>
    <path id="Subtraction_3" data-name="Subtraction 3" d="M3.668,18v0L4.5,14.25H2.348A2.3,2.3,0,0,1,0,12V2.25A2.3,2.3,0,0,1,2.348,0h13.3A2.3,2.3,0,0,1,18,2.25V12a2.3,2.3,0,0,1-2.348,2.251H11.69L3.67,18Zm9.049-9.375a.938.938,0,1,0,.978.938A.96.96,0,0,0,12.717,8.625Zm-3.522,0a.938.938,0,1,0,.978.938A.96.96,0,0,0,9.2,8.625Zm-3.522,0a.938.938,0,1,0,.978.938A.96.96,0,0,0,5.674,8.625Z" transform="translate(-3358.231 2304)" fill="#2175bd"/>
  </g>
</svg>
