<svg xmlns="http://www.w3.org/2000/svg" width="24.5" height="35.5" viewBox="0 0 24.5 35.5">
  <g id="booking" transform="translate(-87.75 -7.75)">
    <path id="Path_119204" data-name="Path 119204" d="M106.976,28.915V10.258A2.248,2.248,0,0,0,104.744,8H90.233A2.248,2.248,0,0,0,88,10.258V40.742A2.248,2.248,0,0,0,90.233,43h14.511a2.248,2.248,0,0,0,2.232-2.258v-.593a5.652,5.652,0,0,0,0-11.234ZM100.122,9.129l-.279,1.129H95.134l-.279-1.129Zm5.738,31.613a1.124,1.124,0,0,1-1.116,1.129H90.233a1.124,1.124,0,0,1-1.116-1.129V10.258a1.124,1.124,0,0,1,1.116-1.129H93.7l.453,1.83a.559.559,0,0,0,.541.428h5.581a.559.559,0,0,0,.541-.428l.453-1.831h3.471a1.124,1.124,0,0,1,1.116,1.129V28.915a5.652,5.652,0,0,0,0,11.234Zm.558-1.694a4.516,4.516,0,1,1,4.465-4.516A4.491,4.491,0,0,1,106.418,39.048Z" fill="#2175bd" stroke="#2070b6" stroke-width="0.5"/>
    <path id="Path_119205" data-name="Path 119205" d="M137.915,116.388,139.3,115a1.746,1.746,0,0,0-2.469-2.469l-1.383,1.383-3.268-1.759a.558.558,0,0,0-.66.1l-1.118,1.118a.56.56,0,0,0,.041.828l2.6,2.125-1.509,1.509-1.641-.67a.561.561,0,0,0-.607.122l-1.118,1.118a.56.56,0,0,0,.108.875l2.676,1.605,1.605,2.676a.56.56,0,0,0,.411.267.572.572,0,0,0,.068,0,.559.559,0,0,0,.4-.164l1.118-1.118a.562.562,0,0,0,.122-.607l-.67-1.64,1.509-1.509,2.125,2.6a.56.56,0,0,0,.828.041l1.118-1.118a.559.559,0,0,0,.1-.66Zm.19,3.819-2.125-2.6a.56.56,0,0,0-.828-.041l-2.209,2.209a.561.561,0,0,0-.122.607l.67,1.641-.349.349-1.309-2.182a.571.571,0,0,0-.192-.192l-2.182-1.309.349-.349,1.641.67a.561.561,0,0,0,.607-.122l2.209-2.209a.56.56,0,0,0-.041-.828l-2.6-2.125.387-.387,3.268,1.759a.559.559,0,0,0,.661-.1l1.677-1.677a.627.627,0,0,1,.886.886l-1.677,1.677a.559.559,0,0,0-.1.66l1.759,3.268Z" transform="translate(-37.204 -96.648)" fill="#2175bd" stroke="#2070b6" stroke-width="0.5"/>
    <path id="Path_119206" data-name="Path 119206" d="M324.82,352.12a.559.559,0,0,0-.786.087l-1.916,2.4-1.251-.834a.559.559,0,0,0-.62.93l1.677,1.118a.559.559,0,0,0,.747-.116l2.237-2.8A.559.559,0,0,0,324.82,352.12Z" transform="translate(-215.826 -319.694)" fill="#2175bd" stroke="#2070b6" stroke-width="0.5"/>
    <path id="Path_119207" data-name="Path 119207" d="M142.151,296h-5.591a.559.559,0,1,0,0,1.118h5.591a.559.559,0,0,0,0-1.118Z" transform="translate(-44.645 -267.671)" fill="#2175bd" stroke="#2070b6" stroke-width="0.5"/>
    <path id="Path_119208" data-name="Path 119208" d="M142.151,320h-5.591a.559.559,0,0,0,0,1.118h5.591a.559.559,0,0,0,0-1.118Z" transform="translate(-44.645 -289.977)" fill="#2175bd" stroke="#2070b6" stroke-width="0.5"/>
    <path id="Path_119209" data-name="Path 119209" d="M138.8,344h-2.237a.559.559,0,0,0,0,1.118H138.8a.559.559,0,0,0,0-1.118Z" transform="translate(-44.645 -312.283)" fill="#2175bd" stroke="#2070b6" stroke-width="0.5"/>
    <path id="Path_119210" data-name="Path 119210" d="M193.118,344h-.559a.559.559,0,0,0,0,1.118h.559a.559.559,0,0,0,0-1.118Z" transform="translate(-96.745 -312.283)" fill="#2175bd" stroke="#2070b6" stroke-width="0.5"/>
  </g>
</svg>
