<svg xmlns="http://www.w3.org/2000/svg" width="18.2" height="21.2" viewBox="0 0 18.2 21.2">
  <path id="Icon_awesome-calendar-day" data-name="Icon awesome-calendar-day" d="M0,18.125A1.849,1.849,0,0,0,1.821,20H15.179A1.849,1.849,0,0,0,17,18.125V7.5H0Zm2.429-7.5A.618.618,0,0,1,3.036,10H6.679a.618.618,0,0,1,.607.625v3.75A.618.618,0,0,1,6.679,15H3.036a.618.618,0,0,1-.607-.625ZM15.179,2.5H13.357V.625A.618.618,0,0,0,12.75,0H11.536a.618.618,0,0,0-.607.625V2.5H6.071V.625A.618.618,0,0,0,5.464,0H4.25a.618.618,0,0,0-.607.625V2.5H1.821A1.849,1.849,0,0,0,0,4.375V6.25H17V4.375A1.849,1.849,0,0,0,15.179,2.5Z" transform="translate(0.6 0.6)" fill="none" stroke="#a2a2a2" stroke-width="1.2"/>
</svg>
