<svg xmlns="http://www.w3.org/2000/svg" width="41.667" height="36.458" viewBox="0 0 41.667 36.458">
  <g id="chat-bubble" transform="translate(0 -29.941)">
    <path id="path-1_11_" d="M151.928,269.851a1.3,1.3,0,1,1-1.841,0,1.3,1.3,0,0,1,1.841,0" transform="translate(-136.254 -217.917)" fill="#2175bd"/>
    <path id="path-1_10_" d="M92.046,269.851a1.3,1.3,0,1,1-1.841,0,1.3,1.3,0,0,1,1.841,0" transform="translate(-81.754 -217.917)" fill="#2175bd"/>
    <path id="path-1_9_" d="M211.81,269.851a1.3,1.3,0,1,1-1.841,0,1.3,1.3,0,0,1,1.841,0" transform="translate(-190.754 -217.917)" fill="#2175bd"/>
    <path id="Path_983" data-name="Path 983" d="M40.364,29.941H14.323a1.3,1.3,0,0,0-1.3,1.3v6.51H1.3a1.3,1.3,0,0,0-1.3,1.3V59.889a1.3,1.3,0,0,0,1.3,1.3H6.144l-.9,3.591a1.3,1.3,0,0,0,1.792,1.506l11.466-5.1h8.839a1.3,1.3,0,0,0,1.3-1.3V55.064l5.864,3.351a1.3,1.3,0,0,0,1.909-1.446l-.9-3.591h4.842a1.3,1.3,0,0,0,1.3-1.3V31.243a1.3,1.3,0,0,0-1.3-1.3ZM26.042,58.587H18.229a1.308,1.308,0,0,0-.529.112L8.422,62.824,9.075,60.2a1.3,1.3,0,0,0-1.263-1.617H2.6V40.358H26.042Zm13.021-7.812H33.854a1.3,1.3,0,0,0-1.263,1.617l.562,2.248-4.508-2.575V39.056a1.3,1.3,0,0,0-1.3-1.3H15.625V32.545H39.062S39.062,50.774,39.062,50.774Z" transform="translate(0 0)" fill="#2175bd"/>
  </g>
</svg>
