<svg id="chat_1_" data-name="chat (1)" xmlns="http://www.w3.org/2000/svg" width="14.838" height="14.839" viewBox="0 0 14.838 14.839">
  <g id="Group_91" data-name="Group 91" transform="translate(0)">
    <path id="Path_1087" data-name="Path 1087" d="M12.68,2.174A7.418,7.418,0,0,0,1.721,12.151,2.839,2.839,0,0,1,.532,13.468a.7.7,0,0,0,.2,1.311,3.834,3.834,0,0,0,.587.044,4.429,4.429,0,0,0,2.61-.866A7.417,7.417,0,0,0,12.68,2.174Zm-.6,9.892a6.571,6.571,0,0,1-7.975,1.023.422.422,0,0,0-.515.066.139.139,0,0,0-.035.025,3.622,3.622,0,0,1-2.237.8h0A4.154,4.154,0,0,0,2.59,12.286a.433.433,0,0,0,.022-.273.44.44,0,0,0-.1-.238,6.572,6.572,0,1,1,9.572.292Z" transform="translate(-0.019)" fill="#fff"/>
    <ellipse id="Ellipse_254" data-name="Ellipse 254" cx="0.521" cy="0.521" rx="0.521" ry="0.521" transform="translate(6.895 6.899)" fill="#fff"/>
    <ellipse id="Ellipse_255" data-name="Ellipse 255" cx="0.521" cy="0.521" rx="0.521" ry="0.521" transform="translate(9.58 6.899)" fill="#fff"/>
    <ellipse id="Ellipse_256" data-name="Ellipse 256" cx="0.521" cy="0.521" rx="0.521" ry="0.521" transform="translate(4.209 6.899)" fill="#fff"/>
  </g>
</svg>
