<svg xmlns="http://www.w3.org/2000/svg" width="31" height="31" viewBox="0 0 31 31">
  <path id="Path_119226" data-name="Path 119226" d="M7.046,40.429a1.408,1.408,0,0,1-1.367-1.751l.97-3.886H1.41A1.411,1.411,0,0,1,0,33.384V10.838A1.411,1.411,0,0,1,1.41,9.429h.58L30.1,9.523a1.416,1.416,0,0,1,.9,1.315V33.384a1.41,1.41,0,0,1-1.408,1.409H20.026L7.618,40.309A1.422,1.422,0,0,1,7.046,40.429ZM2.818,12.248V31.974H8.454a1.408,1.408,0,0,1,1.367,1.751L9.114,36.56,19.155,32.1a1.426,1.426,0,0,1,.573-.122h8.454V12.248ZM21.791,27.171a1.406,1.406,0,0,1-1-.408,1.391,1.391,0,0,1,0-1.976,1.416,1.416,0,0,1,1.992,0,1.391,1.391,0,0,1,0,1.976A1.4,1.4,0,0,1,21.791,27.171Zm-5.826,0a1.408,1.408,0,0,1-1-.408,1.39,1.39,0,0,1,0-1.976,1.416,1.416,0,0,1,1.992,0,1.39,1.39,0,0,1,0,1.976A1.41,1.41,0,0,1,15.966,27.171Zm-5.825,0a1.4,1.4,0,0,1-1-.408,1.39,1.39,0,0,1,0-1.976,1.416,1.416,0,0,1,1.992,0,1.388,1.388,0,0,1,0,1.976A1.406,1.406,0,0,1,10.141,27.171Z" transform="translate(0 -9.429)" fill="#2175bd"/>
</svg>
