<svg id="dollar-symbol" xmlns="http://www.w3.org/2000/svg" width="14" height="14" viewBox="0 0 14 14">
  <path id="Path_119198" data-name="Path 119198" d="M7,0a7,7,0,1,0,7,7A7,7,0,0,0,7,0Zm.424,10.118v.81a.217.217,0,0,1-.225.218h-.54a.22.22,0,0,1-.229-.218v-.739a4.637,4.637,0,0,1-1.378-.273.433.433,0,0,1-.266-.511l.088-.343a.433.433,0,0,1,.576-.3,3.476,3.476,0,0,0,1.245.242c.581,0,.978-.224.978-.632,0-.387-.326-.632-1.08-.887C5.5,7.122,4.756,6.613,4.756,5.624A1.885,1.885,0,0,1,6.475,3.811V3.072a.243.243,0,0,1,.235-.24h.54a.231.231,0,0,1,.22.24v.667a4.022,4.022,0,0,1,1.1.184.434.434,0,0,1,.288.519l-.077.307a.432.432,0,0,1-.559.3,3.12,3.12,0,0,0-1.03-.17c-.662,0-.876.285-.876.571,0,.336.357.55,1.223.876,1.212.428,1.7.989,1.7,1.905A1.952,1.952,0,0,1,7.424,10.118Z" fill="#2175bd"/>
</svg>
