<svg id="email_1_" data-name="email (1)" xmlns="http://www.w3.org/2000/svg" width="26.31" height="20.092" viewBox="0 0 26.31 20.092">
  <g id="Group_7" data-name="Group 7" transform="translate(0 0)">
    <path id="Path_21" data-name="Path 21" d="M25.283,72.37a1.028,1.028,0,0,0,1.028-1.028V64.611A4.116,4.116,0,0,0,22.2,60.5H4.111A4.116,4.116,0,0,0,0,64.611v11.87a4.116,4.116,0,0,0,4.111,4.111H22.2a4.116,4.116,0,0,0,4.111-4.111,1.028,1.028,0,0,0-2.055,0A2.058,2.058,0,0,1,22.2,78.537H4.111a2.058,2.058,0,0,1-2.055-2.055V64.829l8.929,5.552a4.086,4.086,0,0,0,4.342,0l8.929-5.552v6.514A1.028,1.028,0,0,0,25.283,72.37ZM14.241,68.635a2.043,2.043,0,0,1-2.171,0L2.913,62.942a2.044,2.044,0,0,1,1.2-.386H22.2a2.044,2.044,0,0,1,1.2.386Z" transform="translate(0 -60.5)" fill="#bbb"/>
  </g>
</svg>
