<svg xmlns="http://www.w3.org/2000/svg" width="22.299" height="21.23" viewBox="0 0 22.299 21.23">
  <g id="favourites-filled-star-symbol" transform="translate(0.514 0.5)">
    <path id="Path_28" data-name="Path 28" d="M20.345,10.052,14.488,9.5a1.013,1.013,0,0,1-.839-.621l-2.1-5.086a1,1,0,0,0-1.863,0L7.606,8.877a.991.991,0,0,1-.839.621l-5.858.554a1.013,1.013,0,0,0-.571,1.762l4.414,3.877a1,1,0,0,1,.319.99L3.746,22.12a1.013,1.013,0,0,0,1.494,1.108l4.884-2.87a1.015,1.015,0,0,1,1.024,0l4.884,2.87a1.009,1.009,0,0,0,1.494-1.108l-1.309-5.438a1,1,0,0,1,.319-.99l4.414-3.877A1.025,1.025,0,0,0,20.345,10.052Z" transform="translate(0 -3.162)" fill="none" stroke="#2175bd" stroke-width="1"/>
  </g>
</svg>
