<svg xmlns="http://www.w3.org/2000/svg" width="18" height="15" viewBox="0 0 18 15">
  <g id="two-way" transform="translate(0 36.665) rotate(-90)">
    <path id="Path_119211" data-name="Path 119211" d="M26.425.364A1.185,1.185,0,0,0,24.7.376L22.01,3.223a1.248,1.248,0,0,0,.866,2.111h.953V16.769a1.215,1.215,0,0,0,1.2,1.23h1.162a1.215,1.215,0,0,0,1.2-1.23V5.334h.953a1.249,1.249,0,0,0,.855-2.122Zm1.913,3.915H26.871a.52.52,0,0,0-.513.527V16.769a.174.174,0,0,1-.171.176H25.026a.174.174,0,0,1-.171-.176V4.806a.52.52,0,0,0-.513-.527H22.876a.189.189,0,0,1-.131-.32l2.693-2.847a.18.18,0,0,1,.261,0l2.767,2.847a.189.189,0,0,1-.13.322Z" transform="translate(0 0)" fill="#8f8f8f"/>
    <path id="Path_119212" data-name="Path 119212" d="M266.362,12.668h-.953V1.232a1.215,1.215,0,0,0-1.2-1.23h-1.162a1.215,1.215,0,0,0-1.2,1.23V12.668H260.9a1.249,1.249,0,0,0-.855,2.122l2.767,2.847a1.185,1.185,0,0,0,1.721-.012l2.693-2.847a1.248,1.248,0,0,0-.866-2.11Zm.131,1.375L263.8,16.89a.18.18,0,0,1-.261,0l-2.767-2.847a.189.189,0,0,1,.13-.322h1.466a.52.52,0,0,0,.513-.527V1.232a.174.174,0,0,1,.171-.176h1.162a.174.174,0,0,1,.171.176V13.2a.52.52,0,0,0,.513.527h1.466a.189.189,0,0,1,.131.32Z" transform="translate(-230.908 -0.002)" fill="#8f8f8f"/>
  </g>
</svg>
