<svg xmlns="http://www.w3.org/2000/svg" width="19.5" height="17.5" viewBox="0 0 19.5 17.5">
  <g id="funnel" transform="translate(0.25 -38.738)">
    <g id="Group_12" data-name="Group 12" transform="translate(0 38.988)">
      <g id="Group_11" data-name="Group 11">
        <path id="Path_27" data-name="Path 27" d="M18.445,38.988H.555A.562.562,0,0,0,0,39.557V43.25a.562.562,0,0,0,.555.569H1.9l5.5,7.2v4.4a.572.572,0,0,0,.27.488.543.543,0,0,0,.547.013l3.086-1.7a.571.571,0,0,0,.293-.5v-2.71l5.5-7.2h1.346A.562.562,0,0,0,19,43.25V39.557A.562.562,0,0,0,18.445,38.988ZM10.606,50.467a.579.579,0,0,0-.118.351v2.565L8.512,54.469V50.818a.578.578,0,0,0-.118-.351L3.311,43.819H15.689Zm7.284-7.786H1.11V40.126H17.89v2.555Z" transform="translate(0 -38.988)" fill="#fff" stroke="#fff" stroke-width="0.5"/>
      </g>
    </g>
  </g>
</svg>
