<svg id="help_1_" data-name="help (1)" xmlns="http://www.w3.org/2000/svg" width="17" height="17" viewBox="0 0 17 17">
  <g id="Group_46362" data-name="Group 46362">
    <g id="Group_46361" data-name="Group 46361">
      <path id="Path_134198" data-name="Path 134198" d="M222.552,343.22a.9.9,0,0,0,0,1.793.9.9,0,1,0,0-1.793Z" transform="translate(-214.312 -331.832)" fill="#fff"/>
      <path id="Path_134199" data-name="Path 134199" d="M186.315,140c-1.572,0-2.293.931-2.293,1.56a.668.668,0,0,0,.7.664c.629,0,.373-.9,1.56-.9.582,0,1.048.256,1.048.792,0,.629-.652.99-1.036,1.315a2.131,2.131,0,0,0-.78,1.77c0,.605.163.78.64.78.57,0,.687-.256.687-.477a1.462,1.462,0,0,1,.652-1.455,2.98,2.98,0,0,0,1.3-2.13C188.795,140.829,187.805,140,186.315,140Z" transform="translate(-177.926 -135.368)" fill="#fff"/>
      <path id="Path_134200" data-name="Path 134200" d="M8.5,0A8.5,8.5,0,0,0,0,8.5v7.836A.664.664,0,0,0,.664,17H8.5a8.5,8.5,0,0,0,0-17Zm0,15.672H1.328V8.5A7.172,7.172,0,1,1,8.5,15.672Z" fill="#fff"/>
    </g>
  </g>
</svg>
