<svg xmlns="http://www.w3.org/2000/svg" width="33" height="37" viewBox="0 0 33 37">
  <g id="home_1_" data-name="home (1)" transform="translate(-30.814 0)">
    <g id="Group_44028" data-name="Group 44028" transform="translate(30.814 0)">
      <path id="Path_119203" data-name="Path 119203" d="M63.392,14.469,47.76.337a1.317,1.317,0,0,0-1.788.025L31.21,14.494a1.277,1.277,0,0,0-.4.922v20.3A1.294,1.294,0,0,0,32.117,37H42.972a1.294,1.294,0,0,0,1.3-1.285V26.294h6.079v9.421A1.294,1.294,0,0,0,51.656,37H62.511a1.293,1.293,0,0,0,1.3-1.285v-20.3A1.277,1.277,0,0,0,63.392,14.469ZM61.209,34.43h-8.25V25.009a1.294,1.294,0,0,0-1.3-1.285H42.972a1.294,1.294,0,0,0-1.3,1.285V34.43h-8.25V15.96L46.905,3.051l14.3,12.931V34.43Z" transform="translate(-30.814 0)" fill="#2175bd"/>
    </g>
  </g>
</svg>
