<svg xmlns="http://www.w3.org/2000/svg" width="14" height="14" viewBox="0 0 14 14">
  <path id="Path_119202" data-name="Path 119202" d="M1684-3104a7.008,7.008,0,0,1-7-7,7.008,7.008,0,0,1,7-7,7.008,7.008,0,0,1,7,7A7.008,7.008,0,0,1,1684-3104Zm0-7.312a6.833,6.833,0,0,0-1.272.14,4.026,4.026,0,0,0-1.31.72,4.077,4.077,0,0,0-1.4,2.308.951.951,0,0,0,.193.8.946.946,0,0,0,.735.349h6.1a.945.945,0,0,0,.735-.35.947.947,0,0,0,.193-.8,4.064,4.064,0,0,0-1.4-2.308,4,4,0,0,0-1.309-.72A6.832,6.832,0,0,0,1684-3111.313Zm0-4.188a2,2,0,0,0-2,2,2,2,0,0,0,2,2,2,2,0,0,0,2-2A2,2,0,0,0,1684-3115.5Z" transform="translate(-1677 3118)" fill="#bcbcbc"/>
</svg>
