<svg id="idea" xmlns="http://www.w3.org/2000/svg" width="21.307" height="30.304" viewBox="0 0 21.307 30.304">
  <g id="Group_64" data-name="Group 64" transform="translate(0)">
    <g id="Group_63" data-name="Group 63">
      <path id="Path_1034" data-name="Path 1034" d="M81.295,22.846H92.013a1.184,1.184,0,0,0,.923-.442,21.018,21.018,0,0,0,4.372-11.75,10.654,10.654,0,1,0-21.307,0A21.018,21.018,0,0,0,80.372,22.4,1.184,1.184,0,0,0,81.295,22.846ZM86.654,2.367a8.3,8.3,0,0,1,8.286,8.286,18.711,18.711,0,0,1-3.51,9.825H87.837v-3.1a5.3,5.3,0,0,0,2.193-.941,1.184,1.184,0,1,0-1.426-1.89,3.292,3.292,0,0,1-1.946.578h-.009a3.292,3.292,0,0,1-1.946-.578,1.184,1.184,0,1,0-1.426,1.89,5.3,5.3,0,0,0,2.193.941v3.1H81.877a18.711,18.711,0,0,1-3.51-9.825A8.3,8.3,0,0,1,86.654,2.367Z" transform="translate(-76)" fill="#2175bd"/>
      <path id="Path_1035" data-name="Path 1035" d="M157.837,409.189H147.184a1.184,1.184,0,0,0,0,2.367h10.654a1.184,1.184,0,0,0,0-2.367Z" transform="translate(-141.857 -384.97)" fill="#2175bd"/>
      <path id="Path_1036" data-name="Path 1036" d="M197.511,472h-5.327a1.184,1.184,0,0,0,0,2.367h5.327a1.184,1.184,0,0,0,0-2.367Z" transform="translate(-184.194 -444.064)" fill="#2175bd"/>
    </g>
  </g>
</svg>
