<svg id="instagram" xmlns="http://www.w3.org/2000/svg" width="59.334" height="59.333" viewBox="0 0 59.334 59.333">
  <path id="Path_1041" data-name="Path 1041" d="M46.562,23.88H28.878A5.125,5.125,0,0,0,23.759,29V46.683a5.126,5.126,0,0,0,5.119,5.12H46.562a5.126,5.126,0,0,0,5.12-5.12V29A5.125,5.125,0,0,0,46.562,23.88ZM37.72,47.034a9.192,9.192,0,1,1,9.192-9.192A9.2,9.2,0,0,1,37.72,47.034ZM47.208,30.55a2.175,2.175,0,1,1,2.175-2.175A2.178,2.178,0,0,1,47.208,30.55Z" transform="translate(-8.053 -8.094)" fill="#2175bd"/>
  <path id="Path_1042" data-name="Path 1042" d="M42.157,36.971a5.308,5.308,0,1,0,5.307,5.307A5.315,5.315,0,0,0,42.157,36.971Z" transform="translate(-12.49 -12.532)" fill="#2175bd"/>
  <path id="Path_1043" data-name="Path 1043" d="M29.667,0A29.667,29.667,0,1,0,59.334,29.667,29.668,29.668,0,0,0,29.667,0ZM47.512,38.589a9.013,9.013,0,0,1-9,9H20.825a9.013,9.013,0,0,1-9-9V20.9a9.014,9.014,0,0,1,9-9H38.509a9.013,9.013,0,0,1,9,9Z" fill="#2175bd"/>
</svg>
