<svg id="landing" xmlns="http://www.w3.org/2000/svg" width="16.1" height="16.1" viewBox="0 0 16.1 16.1">
  <path id="Path_119093" data-name="Path 119093" d="M485.524,380h0Z" transform="translate(-470.266 -368.052)" fill="#2175bd"/>
  <g id="Group_43705" data-name="Group 43705" transform="translate(0 0)">
    <path id="Path_119094" data-name="Path 119094" d="M193.749,6.13,198.662,7.3,196.111.967a1.626,1.626,0,0,0-.459-.634l-.006,0a1.4,1.4,0,0,0-2.3,1.2Z" transform="translate(-187.296 0)" fill="#2175bd"/>
    <path id="Path_119095" data-name="Path 119095" d="M2.085,124.172l12.271,2.9a1.279,1.279,0,0,0,1.272-.416,1.984,1.984,0,0,0-1.073-3.215L3.264,120.772l.153-1.368a.46.46,0,0,0-.164-.4l-.765-.636a.469.469,0,0,0-.657.057L.637,119.83a2.679,2.679,0,0,0,1.448,4.342Z" transform="translate(0 -114.493)" fill="#2175bd"/>
    <path id="Path_119096" data-name="Path 119096" d="M15.628,482H.472a.477.477,0,0,0,0,.955H15.628a.477.477,0,0,0,0-.955Z" transform="translate(0 -466.855)" fill="#2175bd"/>
  </g>
</svg>
