<svg xmlns="http://www.w3.org/2000/svg" width="30.625" height="35" viewBox="0 0 30.625 35">
  <g id="log" transform="translate(-29.706)">
    <path id="Path_1046" data-name="Path 1046" d="M57.05,0H35.175a3.285,3.285,0,0,0-3.281,3.281V6.563H29.706V8.75h2.188v7.656H29.706v2.188h2.188V26.25H29.706v2.188h2.188v3.281A3.285,3.285,0,0,0,35.175,35H57.05a3.285,3.285,0,0,0,3.281-3.281V3.281A3.285,3.285,0,0,0,57.05,0Zm1.094,31.719a1.1,1.1,0,0,1-1.094,1.094H35.175a1.1,1.1,0,0,1-1.094-1.094V3.281a1.1,1.1,0,0,1,1.094-1.094H57.05a1.1,1.1,0,0,1,1.094,1.094V31.719Z" transform="translate(0)" fill="#2175bd"/>
    <path id="Path_1047" data-name="Path 1047" d="M161.868,253.946a14.623,14.623,0,0,0-11.363,0,3.307,3.307,0,0,0-1.975,3.023v3.463h15.312v-3.463A3.307,3.307,0,0,0,161.868,253.946Zm-.213,4.3H150.717v-1.275a1.118,1.118,0,0,1,.67-1.021,12.4,12.4,0,0,1,9.6,0,1.118,1.118,0,0,1,.67,1.021S161.655,258.244,161.655,258.244Z" transform="translate(-110.074 -234.181)" fill="#2175bd"/>
    <path id="Path_1048" data-name="Path 1048" d="M197.463,127.573a4.375,4.375,0,1,0-4.375-4.375A4.379,4.379,0,0,0,197.463,127.573Zm0-6.563a2.188,2.188,0,1,1-2.188,2.188A2.19,2.19,0,0,1,197.463,121.01Z" transform="translate(-151.351 -110.073)" fill="#2175bd"/>
  </g>
</svg>
