<svg id="logout" xmlns="http://www.w3.org/2000/svg" width="30.369" height="29.049" viewBox="0 0 30.369 29.049">
  <path id="Path_1024" data-name="Path 1024" d="M169.468,220.981H150.322a.99.99,0,0,1,0-1.981h19.146a.99.99,0,0,1,0,1.981Zm0,0" transform="translate(-140.089 -205.466)" fill="#2175bd"/>
  <path id="Path_1025" data-name="Path 1025" d="M155.611,146.2a.983.983,0,0,1-.7-.29l-5.282-5.282a.991.991,0,0,1,0-1.4l5.282-5.282a.991.991,0,1,1,1.4,1.4l-4.582,4.582,4.582,4.582a.99.99,0,0,1-.7,1.69Zm0,0" transform="translate(-140.097 -125.401)" fill="#2175bd"/>
  <path id="Path_1026" data-name="Path 1026" d="M14.524,29.381A14.524,14.524,0,1,1,28.043,9.543a.99.99,0,1,1-1.843.725,12.543,12.543,0,1,0,0,9.178.99.99,0,1,1,1.843.725,14.45,14.45,0,0,1-13.518,9.21Zm0,0" transform="translate(0 -0.332)" fill="#2175bd"/>
</svg>
