<svg xmlns="http://www.w3.org/2000/svg" width="215.348" height="109.405" viewBox="0 0 215.348 109.405">
  <g id="conso_-_logo_-_ar" data-name="conso - logo - ar" transform="translate(0 151.562)">
    <path id="Path_467" data-name="Path 467" d="M858.628-669.312a4.2,4.2,0,0,0,1.45.541c2.272-.151,7.2,3.483,12.721,9.325l2.38,2.51,9.974,2.639,9.974,2.661.8,1.147a3.632,3.632,0,0,1,.714,1.3,20.06,20.06,0,0,1-3.224-.26c-1.709-.195-4.652-.541-6.555-.779-6.123-.714-6.015-.714-5.928-.433.043.13,2.034,2.25,4.392,4.695,4.046,4.176,4.349,4.457,4.976,4.349.368-.043,2.207-.346,4.067-.671l3.418-.606,1.385,1.039a4.68,4.68,0,0,1,1.32,1.168,23.994,23.994,0,0,1-3.029,1.19,12.744,12.744,0,0,0-2.813,1.19,8.126,8.126,0,0,0,2.142.541c1.861.346,2.055.411,2.185.909a1.409,1.409,0,0,1,.065.606,7.474,7.474,0,0,1-1.579-.238c-2.358-.454-2.4-.433-1.709.454.822,1.082.5,1.341-1.147,1a16.111,16.111,0,0,1-1.947-.562c-1.623-.671-12.527-8.849-18.541-13.911a16.377,16.377,0,0,0-2.207-1.709c-.086.086.108,1.038,1.125,5.82a1.844,1.844,0,0,1-.368,1.385l-.476.8-.649-1.709c-.346-.952-1.3-3.548-2.12-5.8l-1.515-4.089-3.721-3.7c-4.154-4.132-6.123-6.469-7.075-8.373-.736-1.428-.8-2.163-.3-2.661C857.265-670.026,857.5-669.983,858.628-669.312Z" transform="translate(-842.614 518.306)" fill="#fff"/>
    <path id="Path_468" data-name="Path 468" d="M11724.828,2103.112l2.6,7.789s-1.515,1.839-7.788,3.462-9.386,1.866-18.066,1.677a75.717,75.717,0,0,1-16.659-2.434,135.63,135.63,0,0,1-15.9-4.868c-7.14-2.812-6.274-2.7-12.548-5.625a132.354,132.354,0,0,1-12.115-6.328c-2.109-1.244-4.22-2.218-8.654-5.084-2.548-1.727-9.2-6.166-9.2-6.166s-5.287-3.395-9.412-6.653a74.529,74.529,0,0,1-7.084-6.382s.209-.03.757.379c1.237.922,4.065,3.222,7.3,5.679a98.053,98.053,0,0,0,9.7,6.671c.818.518,1.937,1.183,3.174,1.9,2.1,1.216,4.471,2.531,5.624,3.148,4.292,2.452,4.959,2.722,8.6,4.561s3.48,2,6.978,3.516,6.778,2.74,6.778,2.74l8.367,2.74,10.962,3.173s8.112,1.668,13.7,2.452a45.993,45.993,0,0,0,8.654.685,44.091,44.091,0,0,0,10.764-1.028c4.038-.938,3.769-1.1,7.121-2.687S11724.828,2103.112,11724.828,2103.112Z" transform="translate(-11556.996 -2189.428)" fill="#fff" opacity="0.4"/>
    <path id="Path_435" data-name="Path 435" d="M-.193-2.373A12.123,12.123,0,0,0,9.225,1.912l5.981-.083a16.09,16.09,0,0,0,15.3-12.89l4.106-22.383a1.911,1.911,0,0,0-1.883-2.262H26.718a1.974,1.974,0,0,0-1.936,1.62L20.859-12.711A6.194,6.194,0,0,1,15.3-7.982L9.332-7.9A2.422,2.422,0,0,1,7.4-8.689a2.69,2.69,0,0,1-.438-2.231L10.3-28.475a1.913,1.913,0,0,0-1.876-2.3H2.389A1.975,1.975,0,0,0,.46-29.195L-2.662-12.7l-.013.072A12.4,12.4,0,0,0-.193-2.373" transform="translate(97.16 -60.52)" fill="#fff"/>
    <path id="Path_436" data-name="Path 436" d="M-.193-2.022A12.123,12.123,0,0,0,9.225,2.263l5.981-.083a16.09,16.09,0,0,0,15.3-12.89l-9.648-1.65A6.194,6.194,0,0,1,15.3-7.631l-5.972.083A2.422,2.422,0,0,1,7.4-8.338a2.69,2.69,0,0,1-.438-2.231L10.3-28.124a1.913,1.913,0,0,0-1.876-2.3H2.389A1.975,1.975,0,0,0,.46-28.844L-2.661-12.349l-.014.072A12.408,12.408,0,0,0-.193-2.022" transform="translate(73.656 -60.872)" fill="#fff"/>
    <path id="Path_437" data-name="Path 437" d="M-.193-1.756A12.123,12.123,0,0,0,9.225,2.529l5.982-.083a16.091,16.091,0,0,0,15.3-12.89l-9.648-1.65A6.2,6.2,0,0,1,15.3-7.365l-5.971.083A2.424,2.424,0,0,1,7.4-8.071,2.693,2.693,0,0,1,6.963-10.3L9.593-24.12a1.912,1.912,0,0,0-1.875-2.3H1.683a1.975,1.975,0,0,0-1.929,1.58L-2.661-12.083l-.014.072A12.408,12.408,0,0,0-.193-1.756" transform="translate(50.153 -61.138)" fill="#fff"/>
    <path id="Path_438" data-name="Path 438" d="M0-.318A4.471,4.471,0,0,0,4.467,4.149,4.472,4.472,0,0,0,8.936-.318,4.473,4.473,0,0,0,4.467-4.787,4.472,4.472,0,0,0,0-.318m.4,0A4.074,4.074,0,0,1,4.467-4.389,4.073,4.073,0,0,1,8.537-.318,4.073,4.073,0,0,1,4.467,3.75,4.074,4.074,0,0,1,.4-.318M3.026-2.9V2.233h.523V-.17h.871l1.423,2.4H6.48L4.979-.212A1.867,1.867,0,0,0,5.5-.341a1.343,1.343,0,0,0,.413-.274,1.306,1.306,0,0,0,.274-.4,1.271,1.271,0,0,0,.1-.516,1.43,1.43,0,0,0-.131-.639,1.1,1.1,0,0,0-.366-.423,1.523,1.523,0,0,0-.56-.238,3.216,3.216,0,0,0-.7-.073Zm.523.451h.929a2.493,2.493,0,0,1,.528.051,1.132,1.132,0,0,1,.407.159.765.765,0,0,1,.261.282.89.89,0,0,1,.094.429.77.77,0,0,1-.343.687,1.74,1.74,0,0,1-.971.228H3.548Z" transform="translate(0 -101.831)" fill="#fff"/>
    <path id="Path_439" data-name="Path 439" d="M-1.649-.975q0-4.86-4.646-4.861a6.084,6.084,0,0,0-4.55,1.791Q-12.6-2.254-13.359,1.968l-.827,4.477q-.129.9-.224,1.632a11.051,11.051,0,0,0-.1,1.44,5,5,0,0,0,1.145,3.646A4.846,4.846,0,0,0-9.8,14.314a5.68,5.68,0,0,0,4.71-1.983A13.088,13.088,0,0,0-2.8,6.445l.827-4.477a17.447,17.447,0,0,0,.32-2.943M8.778-1.742A17.992,17.992,0,0,1,8.65.274c-.087.747-.171,1.311-.256,1.694L7.563,6.445Q6.028,14.57,1.581,18.823C-1.383,21.66.23,23.044-11.372,23.077a15.382,15.382,0,0,1-5.757-.991,12.314,12.314,0,0,1-4.221-2.718,11.034,11.034,0,0,1-2.591-4.126,15.27,15.27,0,0,1-.864-5.213c0-.6.021-1.193.064-1.791a12.914,12.914,0,0,1,.256-1.791l.832-4.477q1.662-8.7,6.332-12.665t12.6-3.966q6.524,0,10.011,3.518a12.778,12.778,0,0,1,3.486,9.4" transform="translate(161.96 -81.654)" fill="#fff"/>
    <path id="Path_440" data-name="Path 440" d="M-1.649-.975q0-4.86-4.645-4.861a6.085,6.085,0,0,0-4.551,1.791Q-12.6-2.254-13.359,1.968l-.827,4.477q-.129.9-.224,1.632a11.217,11.217,0,0,0-.1,1.44,5,5,0,0,0,1.145,3.646A4.846,4.846,0,0,0-9.8,14.314a5.68,5.68,0,0,0,4.71-1.983A13.088,13.088,0,0,0-2.8,6.445l.827-4.477a17.447,17.447,0,0,0,.32-2.943M8.778-1.742A17.992,17.992,0,0,1,8.65.274q-.129,1.12-.256,1.694L7.563,6.445Q6.028,14.57,1.581,18.823C-1.383,21.66.23,23.044-11.371,23.077a15.376,15.376,0,0,1-5.757-.991,12.309,12.309,0,0,1-4.221-2.718,11.034,11.034,0,0,1-2.591-4.126,15.292,15.292,0,0,1-.864-5.213c0-.6.021-1.193.064-1.791a12.914,12.914,0,0,1,.256-1.791l.832-4.477q1.662-8.7,6.332-12.665t12.6-3.966q6.525,0,10.011,3.518a12.778,12.778,0,0,1,3.486,9.4" transform="translate(29.802 -81.654)" fill="#fff"/>
    <path id="Path_441" data-name="Path 441" d="M-.238-2.062c9.153.006,33,.008,33.467.008a6.727,6.727,0,0,0,3.5-.864A6.673,6.673,0,0,0,39.188-6.4a13.143,13.143,0,0,0,.444-1.408q.2-.767.416-1.663l1.106-5.373a14.225,14.225,0,0,0,.391-3.679,4.891,4.891,0,0,0-.6-2.27,2.679,2.679,0,0,0-1.412-1.152,6.145,6.145,0,0,0-2.052-.319H18.653l3.088-8.668s16.362-.1,18.281-.1a19.87,19.87,0,0,1,6.045.831,8.427,8.427,0,0,1,4.124,2.751A9.749,9.749,0,0,1,52.1-22.428a23.617,23.617,0,0,1-.58,7.58L50.411-9.474A22.017,22.017,0,0,1,49.344-5.7,20.339,20.339,0,0,1,46.387-.423a18.669,18.669,0,0,1-4.091,3.9,18.2,18.2,0,0,1-4.888,2.4,17.877,17.877,0,0,1-5.438.832c-1.023,0-25.78-.031-35.546-.091Z" transform="translate(163.144 -65.286)" fill="#fff"/>
    <path id="Path_442" data-name="Path 442" d="M-.238-.528c9.153.006,8.127.008,8.594.008a6.729,6.729,0,0,0,3.5-.864,6.667,6.667,0,0,0,2.459-3.486c.164-.426.718-2.474.862-3.07h9.91a21.934,21.934,0,0,1-1.067,3.774,20.363,20.363,0,0,1-2.957,5.276,18.673,18.673,0,0,1-4.092,3.9,18.2,18.2,0,0,1-4.888,2.4,17.875,17.875,0,0,1-5.437.832c-1.024,0-.456-.031-10.222-.091Z" transform="translate(32.653 -66.82)" fill="#fff"/>
    <path id="Path_443" data-name="Path 443" d="M0-1.947A1.947,1.947,0,0,0,1.913.348H10.35c.91-1.159-1.163-1.2-1.379-1.991a4,4,0,0,1,.2-2.6L32.562-20.114a2.195,2.195,0,0,0,.479-3.19l-3.772-5.177a2.193,2.193,0,0,0-2.869-.489L3.444-13.37A4.49,4.49,0,0,0,1.55-10.462Z" transform="translate(179.389 -87.902)" fill="#fff"/>
    <path id="Path_444" data-name="Path 444" d="M-.719-.556l1-5.464A1.986,1.986,0,0,0-1.678-8.362H-7.6a1.985,1.985,0,0,0-1.955,1.63L-10.8.073A1.308,1.308,0,0,0-9.484,1.665l6.012.061A3.017,3.017,0,0,0-.719-.556" transform="translate(133.74 -100.596)" fill="#fff"/>
    <path id="Path_445" data-name="Path 445" d="M-.754-.371A25.987,25.987,0,0,1-1.12,3.306L-2.19,8.68c-.139.6-.274,1.152-.4,1.664A13.229,13.229,0,0,1-3.03,11.75a6.6,6.6,0,0,1-2.437,3.487,6.69,6.69,0,0,1-3.493.864h-.773l-1.607,8.763h.1a17.87,17.87,0,0,0,5.431-.831,18.065,18.065,0,0,0,4.872-2.4,18.475,18.475,0,0,0,4.066-3.9,20.212,20.212,0,0,0,2.921-5.278A21.851,21.851,0,0,0,7.091,8.68L10.738-5.578Z" transform="translate(26.065 -67.02)" fill="#fff"/>
    <path id="Path_446" data-name="Path 446" d="M-.748-.371a25.987,25.987,0,0,1-.366,3.677L-2.185,8.68c-.139.6-.274,1.152-.4,1.664a13.011,13.011,0,0,1-.436,1.406A6.6,6.6,0,0,1-5.46,15.237a6.693,6.693,0,0,1-3.493.864h-.692l-1.607,8.763h.017A17.874,17.874,0,0,0-5.8,24.033a18.078,18.078,0,0,0,4.872-2.4,18.5,18.5,0,0,0,4.066-3.9,20.209,20.209,0,0,0,2.92-5.278A21.768,21.768,0,0,0,7.1,8.68L10.744-5.578Z" transform="translate(158.218 -67.02)" fill="#fff"/>
  </g>
</svg>
