<svg xmlns="http://www.w3.org/2000/svg" width="215.348" height="141.558" viewBox="0 0 215.348 141.558">
  <g id="conso_-_logo_-_en" data-name="conso - logo - en" transform="translate(-128.03 755.6)">
    <path id="Path_466" data-name="Path 466" d="M11612.45,2101.4l-2.45,7.353s1.43,1.736,7.352,3.268,8.859,1.761,17.054,1.583a71.484,71.484,0,0,0,15.727-2.3,128.015,128.015,0,0,0,15.011-4.6c6.74-2.655,5.923-2.553,11.846-5.31a125.106,125.106,0,0,0,11.438-5.974c1.991-1.174,3.982-2.093,8.169-4.8,2.406-1.63,8.681-5.821,8.681-5.821s4.99-3.2,8.884-6.28a70.062,70.062,0,0,0,6.688-6.025s-.2-.029-.715.357c-1.168.871-3.837,3.042-6.893,5.361a92.9,92.9,0,0,1-9.156,6.3c-.773.49-1.828,1.116-3,1.793-1.983,1.148-4.221,2.389-5.309,2.972-4.051,2.315-4.681,2.57-8.118,4.306s-3.285,1.889-6.587,3.319-6.4,2.587-6.4,2.587l-7.9,2.587-10.349,3s-7.659,1.574-12.935,2.315a43.425,43.425,0,0,1-8.17.647,41.628,41.628,0,0,1-10.16-.97c-3.812-.885-3.557-1.038-6.723-2.536S11612.45,2101.4,11612.45,2101.4Z" transform="translate(-11439.438 -2777.896)" fill="#fff" opacity="0.4"/>
    <path id="Path_447" data-name="Path 447" d="M426.852-755.539c1.144.041,3.023.041,4.187,0,1.144-.02.2-.061-2.1-.061S425.688-755.559,426.852-755.539Z" transform="translate(-237.395 0)" fill="#fff"/>
    <path id="Path_448" data-name="Path 448" d="M896.011-669.343a3.966,3.966,0,0,1-1.368.511c-2.144-.143-6.8,3.288-12.009,8.8l-2.247,2.369-9.415,2.492-9.415,2.512-.756,1.082a3.429,3.429,0,0,0-.674,1.225,18.921,18.921,0,0,0,3.043-.245c1.613-.184,4.391-.511,6.188-.735,5.78-.674,5.678-.674,5.6-.408-.041.123-1.92,2.124-4.146,4.432-3.819,3.942-4.105,4.207-4.7,4.105-.347-.041-2.083-.327-3.84-.633l-3.227-.572-1.307.98c-.735.531-1.287,1.021-1.246,1.1a22.685,22.685,0,0,0,2.859,1.123,12.024,12.024,0,0,1,2.655,1.123,7.674,7.674,0,0,1-2.022.511c-1.756.327-1.94.388-2.063.858a1.33,1.33,0,0,0-.061.572,7.052,7.052,0,0,0,1.491-.225c2.226-.429,2.267-.408,1.613.429-.776,1.021-.47,1.266,1.082.939a15.211,15.211,0,0,0,1.838-.531c1.532-.633,11.825-8.353,17.5-13.132a15.461,15.461,0,0,1,2.083-1.613c.082.082-.1.98-1.062,5.494a1.741,1.741,0,0,0,.347,1.307l.449.756.613-1.613c.327-.9,1.225-3.349,2-5.473l1.43-3.86,3.513-3.492c3.921-3.9,5.78-6.107,6.678-7.9.694-1.348.756-2.042.286-2.512C897.3-670.017,897.073-669.976,896.011-669.343Z" transform="translate(-579.683 -68.223)" fill="#fff"/>
    <path id="Path_449" data-name="Path 449" d="M1136-509.642a6.141,6.141,0,0,0-2.716,3.043,5.057,5.057,0,0,0,1.144,5.024,4.635,4.635,0,0,0,3.635,1.552,4.992,4.992,0,0,0,2.349-9.436A5.3,5.3,0,0,0,1136-509.642Zm4.6.674a4.6,4.6,0,0,1-2.308,8.537,4.434,4.434,0,0,1-4.7-4.6,4.412,4.412,0,0,1,4.657-4.6A3.65,3.65,0,0,1,1140.592-508.968Z" transform="translate(-799.757 -195.41)" fill="#fff"/>
    <path id="Path_450" data-name="Path 450" d="M1150-497.3a10,10,0,0,0,.2,2.982c.1,0,.2-.613.245-1.389.061-1.225.1-1.368.511-1.43.347-.061.592.2,1.287,1.368a4.316,4.316,0,0,0,1.144,1.45c.408,0,.368-.1-.449-1.47l-.756-1.225.654-.511a1.294,1.294,0,0,0,.633-1.185c0-.919-.613-1.328-2.247-1.471L1150-500.3Zm2.859-1.92c.633.633.511,1.164-.347,1.613a3.189,3.189,0,0,1-1.164.225h-.735v-2.247h.919A1.725,1.725,0,0,1,1152.859-499.218Z" transform="translate(-813.249 -203.159)" fill="#fff"/>
    <path id="Path_451" data-name="Path 451" d="M146.1-453.437q-11.029,1.317-15.011,12.5a38.43,38.43,0,0,0-1.716,6.883c-1.511,8.19-1.613,9.619-.96,12.765a12.528,12.528,0,0,0,8.721,9.844c1.593.572,1.7.572,6.311.572,4.166,0,4.963-.061,6.944-.49,2.512-.531,2.839-.654,3.247-1.307a39.91,39.91,0,0,0,1.43-7.781c-.2-.511-.96-.592-2.921-.347a48.19,48.19,0,0,1-9.476-.02c-1.981-.592-2.737-2.287-2.533-5.657a90.308,90.308,0,0,1,1.7-10.13c.9-3.615,2.267-5.678,4.309-6.433.919-.347,1.593-.408,4.33-.408,1.8,0,4.166.1,5.31.2,3.309.347,3.268.388,4.228-4.963l.551-3.023-.408-.551c-.8-1.082-3.656-1.654-9.048-1.777A43.814,43.814,0,0,0,146.1-453.437Z" transform="translate(0 -240.341)" fill="#fff"/>
    <path id="Path_452" data-name="Path 452" d="M529.483-453.211c-4.82.123-5.923.306-8.476,1.409a18.435,18.435,0,0,0-10.314,12.152c-.286,1.246-1.2,6.576-3.166,18.381-1.654,10.008-1.654,9.865-.266,10.722.613.368,1.021.408,4.452.408,4.023,0,4.473-.1,5.126-1.021.245-.347.654-2.328,1.307-6.229.511-3.145,1.307-7.781,1.736-10.314s.919-5.555,1.123-6.74c.49-3.145.8-3.921,2.042-5.269,1.818-1.981,2.349-2.144,7.25-2.369,4.7-.2,5.371-.143,6.168.592,1.185,1.1,1.328-.1-2.614,20.791a79.323,79.323,0,0,0-1.409,8.741,2.5,2.5,0,0,0,.756,1.1c.592.511.613.511,4.779.511h4.166l.613-.572c.674-.592.47.327,3.39-15.154.9-4.779,1.287-6.781,1.716-8.986a19.871,19.871,0,0,0,.327-7.761,13.538,13.538,0,0,0-3.676-6.433,12.1,12.1,0,0,0-6.147-3.533C536.243-453.313,535.038-453.375,529.483-453.211Z" transform="translate(-300.976 -240.567)" fill="#fff"/>
    <path id="Path_453" data-name="Path 453" d="M324.017-452.544a19.5,19.5,0,0,0-11.4,5.126c-3.411,3.411-5.188,7.6-6.883,16.175-1.328,6.678-1.144,10.191.694,13.97,1.961,4,5.514,6.515,10.334,7.312a22.4,22.4,0,0,0,7.638-.082c7.883-1.185,12.254-4.759,15.481-12.683a49.722,49.722,0,0,0,2.287-8.945c.96-5.126,1.021-6.045.633-8.639-.98-6.413-4.248-10.334-9.824-11.825A32.89,32.89,0,0,0,324.017-452.544Zm4.289,10.314c2.716,1.123,3.268,3.615,2.124,9.6-1.552,8.169-2.614,10.661-5.147,12.07-1.021.551-1.2.592-3.431.592-2.737,0-3.574-.286-4.493-1.552-.858-1.185-1.1-2.737-.837-5.188.245-2.1,1.021-6.556,1.573-8.884.633-2.737,2.349-5.392,4-6.25A8.339,8.339,0,0,1,328.306-442.231Z" transform="translate(-140.728 -241.05)" fill="#fff"/>
    <path id="Path_454" data-name="Path 454" d="M755.8-452.732c-6.372.858-9.987,2.757-12.111,6.372a13.756,13.756,0,0,0-.96,9.967c1.042,3.084,1.961,3.962,8.639,8.19a57.417,57.417,0,0,1,5.453,3.737,2.813,2.813,0,0,1,.633,2.594c-.347,2.757-3.7,3.125-15.379,1.654-2.083-.266-2.8-.163-3.125.429a43.535,43.535,0,0,0-1.287,7.332c.163.613.858.919,3.186,1.43,6.168,1.328,13.7,1.348,18.585.041a13.385,13.385,0,0,0,9.64-9.109,13.577,13.577,0,0,0-.061-6.9c-1.368-3.533-1.9-4.064-8.925-8.517-5.269-3.37-5.494-3.533-5.923-4.411a1.931,1.931,0,0,1,.531-2.451l.613-.592,4.636.02a69.352,69.352,0,0,1,7.23.347c3.492.47,3.962.449,4.33-.123a22.422,22.422,0,0,0,.858-3.88c.633-3.942.572-4.269-.674-4.636-1.491-.408-5.7-1.2-7.516-1.43A64.121,64.121,0,0,0,755.8-452.732Z" transform="translate(-485.117 -240.923)" fill="#fff"/>
    <path id="Path_455" data-name="Path 455" d="M954.171-452.573c-4.942.633-9.313,2.737-11.968,5.759-2.675,3.064-4.309,6.678-5.535,12.111-1.43,6.372-1.613,7.7-1.491,10.784a13.779,13.779,0,0,0,1.675,7.046,13.427,13.427,0,0,0,10.13,6.883,22.4,22.4,0,0,0,7.638-.082c4.779-.715,7.72-2.083,10.538-4.9,3.717-3.738,5.392-7.536,7.128-16.318,1.307-6.658,1.123-10.518-.735-14.194a12.326,12.326,0,0,0-8.231-6.617A30.943,30.943,0,0,0,954.171-452.573Zm4.514,10.436c1.675.776,2.573,2.512,2.573,4.963a81.108,81.108,0,0,1-2.083,11.151c-.9,2.818-2.185,4.636-3.942,5.576-.715.388-1.144.449-3.309.449-2.43,0-2.492-.02-3.349-.613-2.226-1.573-2.471-4.187-1.021-11.417.919-4.636,1.613-6.6,2.778-8.067a6.643,6.643,0,0,1,4.289-2.553A8.609,8.609,0,0,1,958.685-442.136Z" transform="translate(-642.275 -241.022)" fill="#fff"/>
    <path id="Path_456" data-name="Path 456" d="M1098-173.542v12.458h3.88V-186H1098Z" transform="translate(-771.869 -453.268)" fill="#fff"/>
    <path id="Path_457" data-name="Path 457" d="M693.961-177.427l.061,1.593,3.431.061,3.411.041v20.24l1.9-.061,1.879-.061.061-10.048.041-10.069,3.329-.041,3.309-.061.061-1.593.061-1.573H693.9Z" transform="translate(-450.3 -458.838)" fill="#fff"/>
    <path id="Path_458" data-name="Path 458" d="M787.944-147.686a5.346,5.346,0,0,0-2.451,2.287l-.613,1.062V-147.5H781l.041,8.312.061,8.333h3.676l.1-5.106c.1-4.616.143-5.188.531-6.025.9-1.961,2.083-2.614,4.289-2.39l1.1.123v-1.613c0-1.389-.061-1.654-.388-1.838A4.083,4.083,0,0,0,787.944-147.686Z" transform="translate(-519.611 -483.596)" fill="#fff"/>
    <path id="Path_459" data-name="Path 459" d="M840.952-147.495a15.218,15.218,0,0,0-1.981.735l-.94.429v3.268l.674-.449c3.145-2.1,6.924-2.063,7.822.1.408.98.368,1.879-.061,2.022-.2.041-1.185.2-2.206.327-3.819.47-5.085.878-6.29,2.022a4.577,4.577,0,0,0-1.47,3.819,3.792,3.792,0,0,0,.613,2.655c1.756,2.839,6.74,3,8.9.286l.694-.858.1,1.185.1,1.2,1.8.061,1.777.061v-6.29a68.465,68.465,0,0,0-.2-7.005,5.219,5.219,0,0,0-2.471-3.166c-1.021-.551-1.287-.613-3.452-.654A12.37,12.37,0,0,0,840.952-147.495Zm5.964,9.987c-.266,2.451-1.287,3.758-3.227,4.207-2,.429-3.615-.592-3.615-2.308a2.273,2.273,0,0,1,1.144-2.226,22.58,22.58,0,0,1,5.678-1.021A3.08,3.08,0,0,1,846.916-137.508Z" transform="translate(-563.776 -483.706)" fill="#fff"/>
    <path id="Path_460" data-name="Path 460" d="M1010.714-147.673a8.023,8.023,0,0,0-4.922,5.085c-1.225,3.574-.409,7.863,1.92,10.069,1.532,1.45,2.921,1.94,5.637,1.94a10.788,10.788,0,0,0,4.963-.919l.96-.408v-3l-1.287.592a7.769,7.769,0,0,1-4.738.837c-2.165-.408-3.227-1.266-3.88-3.1-.613-1.736-1.042-1.613,5.412-1.613h5.719v-1.532a9.608,9.608,0,0,0-1.082-4.861c-1.225-2.349-3.166-3.411-6.127-3.411A11.169,11.169,0,0,0,1010.714-147.673Zm4.064,2.778a4.3,4.3,0,0,1,1.368,1.144c.511.756.837,2.41.531,2.716a21.4,21.4,0,0,1-3.86.143l-3.656-.061.061-.592a4.814,4.814,0,0,1,2.7-3.472A3.03,3.03,0,0,1,1014.778-144.9Z" transform="translate(-698.042 -483.507)" fill="#fff"/>
    <path id="Path_461" data-name="Path 461" d="M917.366-145.324c.163.429,1.45,3.942,2.88,7.822s2.7,7.312,2.8,7.618l.2.572,2.042-.061,2.063-.061,2.921-7.557c1.613-4.166,3.084-7.9,3.247-8.333l.306-.756h-4l-2.083,6.311c-1.144,3.452-2.083,6.515-2.083,6.781,0,.939-.368.02-1.716-4.309-.735-2.41-1.654-5.351-2.042-6.536l-.674-2.144-2.063-.061L917.1-146.1Z" transform="translate(-627.915 -485.019)" fill="#fff"/>
    <path id="Path_462" data-name="Path 462" d="M131-136.468v1.532H239.449V-138H131Z" transform="translate(-2.364 -491.465)" fill="#fff"/>
  </g>
</svg>
