<svg xmlns="http://www.w3.org/2000/svg" width="17" height="17" viewBox="0 0 17 17">
  <g id="map" transform="translate(-0.004)">
    <g id="Group_46591" data-name="Group 46591" transform="translate(0.004 0)">
      <path id="Path_134686" data-name="Path 134686" d="M16.4,0a.607.607,0,0,0-.272.064l-4.6,2.3L6.322.053c-.009,0-.018,0-.027-.008A.607.607,0,0,0,6.223.023.63.63,0,0,0,6.149.008.9.9,0,0,0,6,.008a.63.63,0,0,0-.073.015.607.607,0,0,0-.072.022c-.009,0-.019,0-.027.008L.365,2.481A.607.607,0,0,0,0,3.036V16.393a.607.607,0,0,0,.854.555l5.218-2.319,5.218,2.319c.009,0,.019,0,.028.005a.536.536,0,0,0,.46-.01c.01,0,.021,0,.03-.007l4.857-2.429A.607.607,0,0,0,17,13.964V.607A.607.607,0,0,0,16.4,0ZM5.468,13.57l-4.25,1.889V3.431l4.25-1.889Zm5.464,1.889L6.682,13.57V1.542l4.25,1.889Zm4.857-1.869-3.643,1.821v-12L15.789,1.59Z" transform="translate(-0.004 0)" fill="#fff"/>
    </g>
  </g>
</svg>
