<svg xmlns="http://www.w3.org/2000/svg" width="11.005" height="17.006" viewBox="0 0 11.005 17.006">
  <g id="Group_44004" data-name="Group 44004" transform="translate(-178.058 -875.704)">
    <path id="Subtraction_1" data-name="Subtraction 1" d="M2.424,1.939C1.22,1.939,0,1.59,0,.923,0,.536.414.224,1.166.044A2.631,2.631,0,0,1,1.451,0l0,.009.009.018L1.778.66a.77.77,0,0,0,1.381,0L3.486,0c.063.011.125.026.171.038l.026.006c.752.179,1.166.492,1.166.879C4.848,1.59,3.629,1.939,2.424,1.939Z" transform="translate(181.139 890.271)" fill="none" stroke="#2175bd" stroke-width="1"/>
    <path id="Path_119184" data-name="Path 119184" d="M10.321,13.61l.291.592a.709.709,0,0,0,1.279,0l.616-1.254a50.534,50.534,0,0,1,2.567-4.435l.407-.652a5.154,5.154,0,0,0-.9-6.51A4.949,4.949,0,0,0,10.667.093,5.08,5.08,0,0,0,6.3,4.426a5.151,5.151,0,0,0,.922,3.734A36.757,36.757,0,0,1,10.321,13.61Zm.93-10.642A2.182,2.182,0,1,1,9.108,5.15,2.165,2.165,0,0,1,11.251,2.968Z" transform="translate(172.312 876.151)" fill="none" stroke="#2175bd" stroke-width="1"/>
  </g>
</svg>
