<svg id="password" xmlns="http://www.w3.org/2000/svg" width="26.31" height="30.069" viewBox="0 0 26.31 30.069">
  <g id="Group_9" data-name="Group 9" transform="translate(0)">
    <g id="Group_8" data-name="Group 8">
      <path id="Path_22" data-name="Path 22" d="M57.136,21.26a1.175,1.175,0,0,0,1.175-1.175V15.739a4.7,4.7,0,0,0-4.7-4.7H52.2V6.9a7.049,7.049,0,0,0-14.095,0v4.142H36.7a4.7,4.7,0,0,0-4.7,4.7v9.631a4.7,4.7,0,0,0,4.7,4.7H53.612a4.7,4.7,0,0,0,4.7-4.7,1.175,1.175,0,1,0-2.349,0,2.352,2.352,0,0,1-2.349,2.349H36.7a2.352,2.352,0,0,1-2.349-2.349V15.739A2.352,2.352,0,0,1,36.7,13.39H53.612a2.352,2.352,0,0,1,2.349,2.349v4.346A1.175,1.175,0,0,0,57.136,21.26ZM49.851,11.041h-9.4V6.9a4.7,4.7,0,0,1,9.4,0Z" transform="translate(-32)" fill="#bbb"/>
      <circle id="Ellipse_11" data-name="Ellipse 11" cx="1" cy="1" r="1" transform="translate(12.613 19.069)" fill="#bbb"/>
      <circle id="Ellipse_13" data-name="Ellipse 13" cx="1" cy="1" r="1" transform="translate(17.613 19.069)" fill="#bbb"/>
      <circle id="Ellipse_12" data-name="Ellipse 12" cx="1" cy="1" r="1" transform="translate(7.613 19.069)" fill="#bbb"/>
    </g>
  </g>
</svg>
