<svg xmlns="http://www.w3.org/2000/svg" xmlns:xlink="http://www.w3.org/1999/xlink" width="26" height="22" viewBox="0 0 26 22">
  <defs>
    <radialGradient id="radial-gradient" cx="0.5" cy="0.5" r="0.5" gradientUnits="objectBoundingBox">
      <stop offset="0" stop-color="#2175bd"/>
      <stop offset="1" stop-color="#397eb9"/>
    </radialGradient>
  </defs>
  <g id="Group_56" data-name="Group 56" transform="translate(-320.515 -48)">
    <g id="pencil-edit-button" transform="translate(320.515 48)">
      <path id="Path_999" data-name="Path 999" d="M13.607,4.96l4.451,4.5L6.791,20.841l-4.449-4.5Zm7.829-1.085L19.451,1.87a1.956,1.956,0,0,0-2.783,0l-1.9,1.921,4.451,4.5,2.218-2.241A1.544,1.544,0,0,0,21.436,3.876ZM.013,22.665a.509.509,0,0,0,.613.609l4.96-1.215-4.449-4.5Z" transform="translate(-0.001 -1.289)" fill="url(#radial-gradient)"/>
    </g>
    <path id="Path_1000" data-name="Path 1000" d="M1.615,0H17.761V1.615H0Z" transform="translate(328.754 68.183)" fill="url(#radial-gradient)"/>
  </g>
</svg>
