<svg id="phone-call" xmlns="http://www.w3.org/2000/svg" width="15.5" height="15.523" viewBox="0 0 15.5 15.523">
  <g id="Group_92" data-name="Group 92" transform="translate(0 0)">
    <path id="Path_1088" data-name="Path 1088" d="M12.6,36.124a1.527,1.527,0,0,0-1.107-.508,1.579,1.579,0,0,0-1.12.5L9.338,37.153c-.085-.046-.17-.088-.252-.131-.118-.059-.229-.115-.324-.174a11.252,11.252,0,0,1-2.7-2.457A6.638,6.638,0,0,1,5.18,33c.269-.246.518-.5.76-.747.092-.092.183-.187.275-.278a1.5,1.5,0,0,0,0-2.267l-.894-.894c-.1-.1-.206-.206-.3-.311-.2-.2-.4-.413-.616-.609a1.551,1.551,0,0,0-1.1-.482,1.6,1.6,0,0,0-1.114.482l-.007.007L1.069,29.018a2.4,2.4,0,0,0-.711,1.523,5.743,5.743,0,0,0,.419,2.431,14.106,14.106,0,0,0,2.506,4.18,15.417,15.417,0,0,0,5.134,4.02,8,8,0,0,0,2.883.852c.069,0,.141.007.206.007a2.469,2.469,0,0,0,1.89-.812c0-.007.01-.01.013-.016a7.447,7.447,0,0,1,.573-.593c.141-.134.285-.275.426-.423a1.634,1.634,0,0,0,.495-1.134,1.574,1.574,0,0,0-.5-1.124Zm1.173,3.45s0,0,0,0c-.128.138-.259.262-.4.4a8.615,8.615,0,0,0-.632.655,1.579,1.579,0,0,1-1.232.521c-.049,0-.1,0-.151,0A7.106,7.106,0,0,1,8.8,40.38a14.553,14.553,0,0,1-4.836-3.787,13.3,13.3,0,0,1-2.359-3.928,4.678,4.678,0,0,1-.367-2.051,1.5,1.5,0,0,1,.452-.973l1.117-1.117a.745.745,0,0,1,.5-.233.7.7,0,0,1,.478.229l.01.01c.2.187.39.38.59.586.1.1.206.21.311.318l.894.894a.625.625,0,0,1,0,1.016c-.1.1-.187.19-.282.282-.275.282-.537.544-.822.8-.007.007-.013.01-.016.016a.668.668,0,0,0-.17.744l.01.029A7.181,7.181,0,0,0,5.37,34.941l0,0a12.025,12.025,0,0,0,2.909,2.647,4.473,4.473,0,0,0,.4.22c.118.059.229.115.324.174.013.007.026.016.039.023a.71.71,0,0,0,.324.082.7.7,0,0,0,.5-.226l1.12-1.12a.741.741,0,0,1,.495-.246.667.667,0,0,1,.472.239l.007.007,1.805,1.805A.648.648,0,0,1,13.774,39.574Z" transform="translate(-0.344 -26.508)" fill="#2175bd"/>
    <path id="Path_1089" data-name="Path 1089" d="M245.308,86.8a4.216,4.216,0,0,1,3.433,3.433.44.44,0,0,0,.436.367.584.584,0,0,0,.075-.007.443.443,0,0,0,.364-.511,5.1,5.1,0,0,0-4.154-4.154.445.445,0,0,0-.511.36A.438.438,0,0,0,245.308,86.8Z" transform="translate(-236.93 -83.11)" fill="#2175bd"/>
    <path id="Path_1090" data-name="Path 1090" d="M256.13,6.848A8.4,8.4,0,0,0,249.289.007a.442.442,0,1,0-.144.871,7.5,7.5,0,0,1,6.113,6.113.44.44,0,0,0,.436.367.585.585,0,0,0,.075-.007A.434.434,0,0,0,256.13,6.848Z" transform="translate(-240.636 0)" fill="#2175bd"/>
  </g>
</svg>
