<svg xmlns="http://www.w3.org/2000/svg" width="33.75" height="33.75" viewBox="0 0 33.75 33.75">
  <g id="user_i" data-name="user i" transform="translate(0.375 0.375)">
    <g id="Group_30" data-name="Group 30">
      <g id="Group_29" data-name="Group 29">
        <path id="Path_988" data-name="Path 988" d="M16.5,0A16.5,16.5,0,1,0,33,16.5,16.519,16.519,0,0,0,16.5,0Zm0,31.625A15.079,15.079,0,0,1,5.15,26.464c.079-.048.159-.1.237-.14A25.071,25.071,0,0,1,16.5,23.375a25.074,25.074,0,0,1,11.112,2.948c.079.041.159.093.238.141A15.079,15.079,0,0,1,16.5,31.625ZM28.241,25.1A26.447,26.447,0,0,0,16.5,22,26.444,26.444,0,0,0,4.758,25.1a5.472,5.472,0,0,0-.475.279A15.116,15.116,0,1,1,31.625,16.5a15.024,15.024,0,0,1-2.908,8.88A5.467,5.467,0,0,0,28.241,25.1Z" fill="#2175bd" stroke="#2175bd" stroke-width="0.75"/>
        <path id="Path_989" data-name="Path 989" d="M141.239,74.667a7.906,7.906,0,1,0,7.906,7.906A7.915,7.915,0,0,0,141.239,74.667Zm0,14.438a6.531,6.531,0,1,1,6.531-6.531A6.539,6.539,0,0,1,141.239,89.1Z" transform="translate(-124.739 -69.854)" fill="#2175bd" stroke="#2175bd" stroke-width="0.75"/>
      </g>
    </g>
  </g>
</svg>
