<svg id="resume" xmlns="http://www.w3.org/2000/svg" width="18.561" height="23.445" viewBox="0 0 18.561 23.445">
  <g id="Group_21" data-name="Group 21" transform="translate(0 0)">
    <g id="Group_20" data-name="Group 20">
      <path id="Path_31" data-name="Path 31" d="M252.172,42.667h-5.861a.977.977,0,0,0-.977.977v5.861a.977.977,0,0,0,.977.977h5.861a.977.977,0,0,0,.977-.977V43.644A.977.977,0,0,0,252.172,42.667ZM247.4,49.505a1.954,1.954,0,0,1,3.693,0Zm.869-3.419a.977.977,0,1,1,.977.977A.977.977,0,0,1,248.265,46.086Zm3.908,3.419h-.064a2.931,2.931,0,0,0-1.534-2,1.954,1.954,0,1,0-2.761-.1q.048.051.1.1a2.931,2.931,0,0,0-1.539,2h-.064V43.644h5.861v5.861Z" transform="translate(-236.542 -40.713)" fill="#2175bd"/>
      <path id="Path_32" data-name="Path 32" d="M70.693,0H57.73a.489.489,0,0,0-.347.142L53.475,4.049a.488.488,0,0,0-.142.347V22.234a1.216,1.216,0,0,0,1.211,1.211H70.664a1.216,1.216,0,0,0,1.231-1.2s0-.007,0-.01v-21A1.216,1.216,0,0,0,70.693,0Zm.225,22.234a.234.234,0,0,1-.234.234H54.565a.234.234,0,0,1-.253-.214c0-.007,0-.014,0-.02V4.6l2.931-2.931V3.688a.225.225,0,0,1-.22.22H55.776v.977h1.465a1.2,1.2,0,0,0,.977-1.177V.977H70.683a.234.234,0,0,1,.234.234V22.234Z" transform="translate(-53.334 0)" fill="#2175bd"/>
      <rect id="Rectangle_23" data-name="Rectangle 23" width="7.815" height="0.977" transform="translate(6.35 11.723)" fill="#2175bd"/>
      <rect id="Rectangle_24" data-name="Rectangle 24" width="9.769" height="0.977" transform="translate(4.396 14.165)" fill="#2175bd"/>
      <rect id="Rectangle_25" data-name="Rectangle 25" width="9.769" height="0.977" transform="translate(4.396 16.607)" fill="#2175bd"/>
      <rect id="Rectangle_26" data-name="Rectangle 26" width="7.815" height="0.977" transform="translate(4.396 19.049)" fill="#2175bd"/>
      <rect id="Rectangle_27" data-name="Rectangle 27" width="0.977" height="0.977" transform="translate(13.188 19.049)" fill="#2175bd"/>
    </g>
  </g>
</svg>
