<svg xmlns="http://www.w3.org/2000/svg" width="191.182" height="222" viewBox="0 0 191.182 222">
  <g id="rocket" transform="translate(-0.5)">
    <path id="Path_1054" data-name="Path 1054" d="M97.735,482.612a3.205,3.205,0,0,1-2.3-5.439l3.984-4.1a3.205,3.205,0,1,1,4.6,4.465l-3.985,4.1a3.191,3.191,0,0,1-2.3.974Zm0,0" transform="translate(-53.259 -267.398)" fill="#fff"/>
    <path id="Path_1055" data-name="Path 1055" d="M197.463,119.526a3.205,3.205,0,0,1-2.3-5.437l3.985-4.106a3.2,3.2,0,1,1,4.6,4.465l-3.985,4.106A3.2,3.2,0,0,1,197.463,119.526Zm0,0" transform="translate(-109.746 -61.744)" fill="#fff"/>
    <path id="Path_1056" data-name="Path 1056" d="M409.618,86.657a3.2,3.2,0,0,1-2.3-5.437l3.985-4.106a3.205,3.205,0,0,1,4.6,4.465l-3.985,4.106A3.2,3.2,0,0,1,409.618,86.657Zm0,0" transform="translate(-229.911 -43.128)" fill="#fff"/>
    <path id="Path_1057" data-name="Path 1057" d="M409.618,450.037a3.2,3.2,0,0,1-2.3-5.437L411.3,440.5a3.205,3.205,0,1,1,4.6,4.465l-3.985,4.106A3.2,3.2,0,0,1,409.618,450.037Zm0,0" transform="translate(-229.911 -248.948)" fill="#fff"/>
    <path id="Path_1058" data-name="Path 1058" d="M58.885,99.176a3.2,3.2,0,0,1-2.3-5.437l3.985-4.106a3.2,3.2,0,0,1,4.6,4.465L61.185,98.2a3.2,3.2,0,0,1-2.3.972Zm0,0" transform="translate(-31.255 -50.219)" fill="#fff"/>
    <path id="Path_1059" data-name="Path 1059" d="M8.124,265.088a3.2,3.2,0,0,1-2.3-5.437l3.984-4.106a3.205,3.205,0,0,1,4.6,4.465l-3.985,4.106a3.193,3.193,0,0,1-2.3.972Zm0,0" transform="translate(-2.503 -144.191)" fill="#fff"/>
    <path id="Path_1060" data-name="Path 1060" d="M184.492,219.253l-10.4,5.635a3.7,3.7,0,0,1-5.337-4l1.987-11.934a3.857,3.857,0,0,0-1.057-3.354l-8.418-8.453a3.82,3.82,0,0,1,2.039-6.463l11.631-1.741a3.683,3.683,0,0,0,2.769-2.073l5.2-10.858a3.632,3.632,0,0,1,6.6,0l5.2,10.858a3.689,3.689,0,0,0,2.769,2.073l11.632,1.741a3.82,3.82,0,0,1,2.038,6.463l-8.416,8.453a3.858,3.858,0,0,0-1.059,3.354l1.987,11.934a3.7,3.7,0,0,1-5.335,4l-10.4-5.635a3.579,3.579,0,0,0-3.423,0Zm0,0" transform="translate(-90.425 -98.5)" fill="#fff"/>
    <path id="Path_1061" data-name="Path 1061" d="M216.052,438.152a3.2,3.2,0,0,1-3.2-3.2V384.827a3.2,3.2,0,1,1,6.409,0v50.121A3.2,3.2,0,0,1,216.052,438.152Zm0,0" transform="translate(-120.275 -216.152)" fill="#fff"/>
    <path id="Path_1062" data-name="Path 1062" d="M216.045,349.048H216a3.205,3.205,0,1,1,0-6.411h.049a3.205,3.205,0,0,1,0,6.411Zm0,0" transform="translate(-120.242 -194.072)" fill="#fff"/>
    <path id="Path_1063" data-name="Path 1063" d="M216.044,323.624h-.064a3.2,3.2,0,0,1,.014-6.409h.064a3.2,3.2,0,0,1-.014,6.409Zm0,0" transform="translate(-120.242 -179.672)" fill="#fff"/>
    <path id="Path_1064" data-name="Path 1064" d="M38.108,176.227a3.2,3.2,0,0,1-2.3-.972l-34.4-35.441A3.2,3.2,0,0,1,6,135.349l34.4,35.441a3.205,3.205,0,0,1-2.3,5.437Zm0,0" transform="translate(0 -76.112)" fill="#fff"/>
    <path id="Path_1065" data-name="Path 1065" d="M109.766,250.083a3.206,3.206,0,0,1-2.293-5.445l.036-.036a3.205,3.205,0,1,1,4.585,4.48l-.034.036a3.2,3.2,0,0,1-2.293.965Zm0,0" transform="translate(-60.073 -137.998)" fill="#fff"/>
    <path id="Path_1066" data-name="Path 1066" d="M127.217,268.059a3.2,3.2,0,0,1-2.3-5.437l.034-.037a3.206,3.206,0,0,1,4.6,4.466l-.036.036a3.2,3.2,0,0,1-2.3.972Zm0,0" transform="translate(-69.958 -148.179)" fill="#fff"/>
    <path id="Path_1067" data-name="Path 1067" d="M349.057,173.32a3.2,3.2,0,0,1-2.3-5.437l34.4-35.44a3.205,3.205,0,1,1,4.6,4.465l-34.4,35.44a3.2,3.2,0,0,1-2.3.972Zm0,0" transform="translate(-195.61 -74.466)" fill="#fff"/>
    <path id="Path_1068" data-name="Path 1068" d="M322.291,247.182a3.19,3.19,0,0,1-2.285-.959l-.036-.036a3.205,3.205,0,0,1,4.571-4.493l.036.036a3.206,3.206,0,0,1-2.287,5.452Zm0,0" transform="translate(-180.429 -136.354)" fill="#fff"/>
    <path id="Path_1069" data-name="Path 1069" d="M304.841,265.158a3.2,3.2,0,0,1-2.3-.972l-.036-.036a3.206,3.206,0,0,1,4.6-4.466l.036.036a3.206,3.206,0,0,1-2.3,5.439Zm0,0" transform="translate(-170.545 -146.536)" fill="#fff"/>
    <path id="Path_1070" data-name="Path 1070" d="M296.47,51.875a3.206,3.206,0,0,1-2.779-4.793L318.346,3.873a3.205,3.205,0,0,1,5.567,3.177L299.258,50.259a3.206,3.206,0,0,1-2.788,1.616Zm0,0" transform="translate(-165.826 -1.278)" fill="#fff"/>
    <path id="Path_1071" data-name="Path 1071" d="M277.284,141.921a3.192,3.192,0,0,1-1.643-.454l-.042-.025a3.205,3.205,0,0,1,3.291-5.5l.042.025a3.2,3.2,0,0,1-1.648,5.955Zm0,0" transform="translate(-154.934 -76.74)" fill="#fff"/>
    <path id="Path_1072" data-name="Path 1072" d="M264.778,163.839a3.189,3.189,0,0,1-1.651-.461l-.042-.025a3.2,3.2,0,1,1,3.31-5.489l.042.025a3.205,3.205,0,0,1-1.658,5.95Zm0,0" transform="translate(-147.851 -89.154)" fill="#fff"/>
    <path id="Path_1073" data-name="Path 1073" d="M103.564,51.874a3.2,3.2,0,0,1-2.788-1.618L76.121,7.05a3.205,3.205,0,0,1,5.567-3.177l24.656,43.207a3.205,3.205,0,0,1-2.779,4.795Zm0,0" transform="translate(-42.593 -1.278)" fill="#fff"/>
    <path id="Path_1074" data-name="Path 1074" d="M154.9,141.921a3.2,3.2,0,0,1-1.655-5.952l.044-.025a3.2,3.2,0,0,1,3.3,5.494l-.042.025a3.193,3.193,0,0,1-1.648.457Zm0,0" transform="translate(-85.637 -76.74)" fill="#fff"/>
    <path id="Path_1075" data-name="Path 1075" d="M167.411,163.839a3.206,3.206,0,0,1-1.665-5.947l.042-.025a3.206,3.206,0,1,1,3.323,5.483l-.042.025a3.189,3.189,0,0,1-1.658.464Zm0,0" transform="translate(-92.722 -89.154)" fill="#fff"/>
    <path id="Path_1076" data-name="Path 1076" d="M376.66,315.531l-6.731,5.03a2.6,2.6,0,0,1-4.129-2.239l.218-8.563a2.713,2.713,0,0,0-1.07-2.239l-6.724-5.039a2.713,2.713,0,0,1,.791-4.739l7.974-2.432a2.642,2.642,0,0,0,1.734-1.741l2.574-8.145a2.572,2.572,0,0,1,4.619-.689l4.71,7.061a2.583,2.583,0,0,0,2.143,1.162l8.316.005a2.688,2.688,0,0,1,2.063,4.314l-5.063,6.8a2.748,2.748,0,0,0-.412,2.459l2.566,8.15a2.641,2.641,0,0,1-3.345,3.354l-7.839-2.861a2.539,2.539,0,0,0-2.4.357Zm0,0" transform="translate(-202.009 -160.617)" fill="#fff"/>
    <path id="Path_1077" data-name="Path 1077" d="M257.322,420.262a3.2,3.2,0,0,1-3.2-3.2c0-24.815,9.9-41.591,18.2-51.3,9.031-10.55,18.043-15.186,18.423-15.379a3.205,3.205,0,0,1,2.9,5.716,61.634,61.634,0,0,0-16.636,14.046c-10.938,12.886-16.483,28.67-16.483,46.913a3.2,3.2,0,0,1-3.2,3.2Zm0,0" transform="translate(-143.65 -198.262)" fill="#fff"/>
    <path id="Path_1078" data-name="Path 1078" d="M85.528,358.2l5.1,6.766A2.576,2.576,0,0,0,95.2,364l2.109-8.287a2.654,2.654,0,0,1,1.634-1.841l7.822-2.908a2.715,2.715,0,0,0,.523-4.776l-7-4.627a2.708,2.708,0,0,1-1.2-2.17l-.268-8.563a2.593,2.593,0,0,0-4.248-1.988l-6.434,5.427a2.545,2.545,0,0,1-2.373.5l-7.988-2.385a2.648,2.648,0,0,0-3.149,3.548l3.022,7.983a2.749,2.749,0,0,1-.271,2.48l-4.67,7.088a2.68,2.68,0,0,0,2.3,4.182l8.3-.495a2.573,2.573,0,0,1,2.205,1.031Zm0,0" transform="translate(-40.647 -185.911)" fill="#fff"/>
    <path id="Path_1079" data-name="Path 1079" d="M163.082,455.329a3.2,3.2,0,0,1-3.2-3.2,73.183,73.183,0,0,0-8.608-35.44,3.206,3.206,0,0,1,5.63-3.067,79.545,79.545,0,0,1,9.387,38.507,3.2,3.2,0,0,1-3.2,3.2Zm0,0" transform="translate(-85.175 -233.329)" fill="#fff"/>
    <path id="Path_1080" data-name="Path 1080" d="M246.456,44.325a8.6,8.6,0,1,0-8.6,8.862A8.734,8.734,0,0,0,246.456,44.325Zm0,0" transform="translate(-129.568 -20.087)" fill="#fff"/>
    <path id="Path_1081" data-name="Path 1081" d="M350.61,435.239a8.6,8.6,0,1,0-8.6,8.86A8.732,8.732,0,0,0,350.61,435.239Zm0,0" transform="translate(-188.562 -241.504)" fill="#fff"/>
    <path id="Path_1082" data-name="Path 1082" d="M26.108,441.573a7,7,0,0,0-6.9-7.105,7.109,7.109,0,0,0,0,14.212A7,7,0,0,0,26.108,441.573Zm0,0" transform="translate(-6.69 -246.086)" fill="#fff"/>
    <path id="Path_1083" data-name="Path 1083" d="M70.151,279.07a6.9,6.9,0,1,0-6.9,7.107A7,7,0,0,0,70.151,279.07Zm0,0" transform="translate(-31.637 -154.043)" fill="#fff"/>
    <g id="Group_88" data-name="Group 88" transform="translate(57.763)">
      <path id="Path_1084" data-name="Path 1084" d="M192.819,7.107a6.9,6.9,0,1,0-13.8,0,6.9,6.9,0,1,0,13.8,0Zm0,0" transform="translate(-158.879)" fill="#fff"/>
      <path id="Path_1085" data-name="Path 1085" d="M347.2,143.6a6.9,6.9,0,1,0-6.9,7.105A7.006,7.006,0,0,0,347.2,143.6Zm0,0" transform="translate(-246.323 -77.31)" fill="#fff"/>
      <path id="Path_1086" data-name="Path 1086" d="M135.77,19.01a3.205,3.205,0,0,1-2.3-5.437l3.985-4.106a3.2,3.2,0,1,1,4.6,4.465l-3.984,4.106a3.2,3.2,0,0,1-2.3.972Zm0,0" transform="translate(-132.565 -4.811)" fill="#fff"/>
    </g>
  </g>
</svg>
