<svg id="terms" xmlns="http://www.w3.org/2000/svg" width="22.491" height="30.304" viewBox="0 0 22.491 30.304">
  <g id="Group_62" data-name="Group 62" transform="translate(0)">
    <g id="Group_61" data-name="Group 61">
      <path id="Path_1032" data-name="Path 1032" d="M169.082,223.67l-1.621-1.621a1.184,1.184,0,0,0-1.674,1.674l2.458,2.458a1.184,1.184,0,0,0,1.674,0l5.886-5.886a1.184,1.184,0,1,0-1.674-1.674Z" transform="translate(-159.555 -205.355)" fill="#2175bd"/>
      <path id="Path_1033" data-name="Path 1033" d="M87.307,2.249H80.674V1.184A1.184,1.184,0,0,0,79.49,0h-4.5a1.184,1.184,0,0,0-1.184,1.184V2.249H67.184A1.184,1.184,0,0,0,66,3.433V29.12A1.184,1.184,0,0,0,67.184,30.3H87.307a1.184,1.184,0,0,0,1.184-1.184V3.433A1.184,1.184,0,0,0,87.307,2.249Zm-11.131.118h2.131V4.5H76.176Zm9.948,25.569H68.367V4.617h5.441V5.682a1.184,1.184,0,0,0,1.184,1.184h4.5a1.184,1.184,0,0,0,1.184-1.184V4.617h5.449Z" transform="translate(-66)" fill="#2175bd"/>
    </g>
  </g>
</svg>
