<svg id="twitter" xmlns="http://www.w3.org/2000/svg" width="59.333" height="59.333" viewBox="0 0 59.333 59.333">
  <ellipse id="Ellipse_248" data-name="Ellipse 248" cx="29.667" cy="29.667" rx="29.667" ry="29.667" transform="translate(0 0)" fill="#2175bd"/>
  <g id="Group_68" data-name="Group 68" transform="translate(13.275 17.995)">
    <path id="Path_1044" data-name="Path 1044" d="M59.667,37.353a14.148,14.148,0,0,1-4.073,1.115,7.11,7.11,0,0,0,3.119-3.922,14.2,14.2,0,0,1-4.5,1.72,7.1,7.1,0,0,0-12.084,6.469,20.13,20.13,0,0,1-14.617-7.41A7.1,7.1,0,0,0,29.7,44.793a7.041,7.041,0,0,1-3.212-.888c0,.03,0,.06,0,.09a7.1,7.1,0,0,0,5.689,6.953,7.119,7.119,0,0,1-3.2.123A7.1,7.1,0,0,0,35.6,55.995a14.315,14.315,0,0,1-10.5,2.936,20.058,20.058,0,0,0,10.869,3.186c13.043,0,20.176-10.805,20.176-20.177,0-.307-.007-.613-.021-.917a14.38,14.38,0,0,0,3.539-3.67Z" transform="translate(-25.103 -34.028)" fill="#f1f2f2"/>
  </g>
</svg>
