<svg xmlns="http://www.w3.org/2000/svg" width="20" height="18" viewBox="0 0 20 18">
  <g id="two-way" transform="translate(0 39.665) rotate(-90)">
    <path id="Path_119211" data-name="Path 119211" d="M26.953.4a1.317,1.317,0,0,0-1.912.013L22.049,3.581a1.386,1.386,0,0,0,.962,2.345H24.07V18.633A1.35,1.35,0,0,0,25.4,20H26.69a1.35,1.35,0,0,0,1.329-1.367V5.926h1.059a1.388,1.388,0,0,0,.95-2.358Zm2.125,4.35H27.45a.578.578,0,0,0-.57.586V18.633a.193.193,0,0,1-.19.2H25.4a.193.193,0,0,1-.19-.2V5.34a.578.578,0,0,0-.57-.586H23.011a.21.21,0,0,1-.146-.356l2.993-3.163a.2.2,0,0,1,.29,0L29.223,4.4a.21.21,0,0,1-.144.358Z" transform="translate(0 0)" fill="#fff"/>
    <path id="Path_119212" data-name="Path 119212" d="M267.1,14.076h-1.059V1.369A1.35,1.35,0,0,0,264.715,0h-1.291a1.35,1.35,0,0,0-1.329,1.367V14.076h-1.059a1.388,1.388,0,0,0-.95,2.358l3.075,3.163a1.316,1.316,0,0,0,1.912-.013l2.993-3.163a1.386,1.386,0,0,0-.962-2.345Zm.146,1.528-2.993,3.163a.2.2,0,0,1-.29,0l-3.075-3.163a.21.21,0,0,1,.144-.358h1.629a.578.578,0,0,0,.57-.586V1.369a.193.193,0,0,1,.19-.2h1.291a.193.193,0,0,1,.19.2V14.662a.578.578,0,0,0,.57.586H267.1a.21.21,0,0,1,.146.356Z" transform="translate(-228.784 -0.002)" fill="#fff"/>
  </g>
</svg>
