<svg xmlns="http://www.w3.org/2000/svg" width="21.688" height="24.261" viewBox="0 0 21.688 24.261">
  <g id="updated" transform="translate(0 0)">
    <path id="Path_993" data-name="Path 993" d="M1.531,40.6A9.2,9.2,0,0,0,5.449,48.14a.759.759,0,0,1,.039,1.219l-.011.009a.757.757,0,0,1-.9.028A10.727,10.727,0,0,1,0,40.6,10.847,10.847,0,0,1,10.771,29.863v1.531A9.316,9.316,0,0,0,1.531,40.6Zm0,0" transform="translate(0 -28.447)" fill="#fff"/>
    <path id="Path_994" data-name="Path 994" d="M225.066.046l2.814,1.924a.26.26,0,0,1,0,.429l-2.814,1.924a.26.26,0,0,1-.406-.214V.26a.26.26,0,0,1,.406-.214Zm0,0" transform="translate(-214.014)" fill="#fff"/>
    <path id="Path_995" data-name="Path 995" d="M239.794,75.983a9.2,9.2,0,0,0-3.918-7.538.759.759,0,0,1-.039-1.219l.011-.009a.757.757,0,0,1,.9-.028,10.727,10.727,0,0,1,4.575,8.795,10.84,10.84,0,0,1-10.762,10.739V85.19A9.309,9.309,0,0,0,239.794,75.983Zm0,0" transform="translate(-219.637 -63.875)" fill="#fff"/>
    <path id="Path_996" data-name="Path 996" d="M165.628,424.122l-2.814-1.924a.26.26,0,0,1,0-.428l2.814-1.924a.26.26,0,0,1,.406.214v3.849A.26.26,0,0,1,165.628,424.122Zm0,0" transform="translate(-154.992 -399.906)" fill="#fff"/>
    <path id="Path_997" data-name="Path 997" d="M128.718,187.342l-4.609,3.822-1.162.964a1.52,1.52,0,0,1-2.187-.258l-1.792-2.389a1.222,1.222,0,1,1,1.955-1.466l1.21,1.613.01-.008,5.015-4.159a1.222,1.222,0,1,1,1.56,1.882Zm0,0" transform="translate(-113.099 -176.404)" fill="#fff"/>
    <path id="Path_998" data-name="Path 998" d="M197.457,187.342l-4.609,3.822a6.191,6.191,0,0,1-1.966-1.545l5.015-4.159a1.222,1.222,0,1,1,1.56,1.882Zm0,0" transform="translate(-181.838 -176.404)" fill="#fff"/>
  </g>
</svg>
