<svg xmlns="http://www.w3.org/2000/svg" width="18" height="18" viewBox="0 0 18 18">
  <g id="user" transform="translate(0)">
    <g id="Group_24" data-name="Group 24" transform="translate(0)">
      <path id="Path_984" data-name="Path 984" d="M17.955,15.424a.7.7,0,0,0-1.377.287.735.735,0,0,1-.149.616.714.714,0,0,1-.562.267H2.134a.714.714,0,0,1-.562-.267.735.735,0,0,1-.149-.616A7.769,7.769,0,0,1,8.814,9.559q.093,0,.186,0t.187,0a7.735,7.735,0,0,1,6.247,3.433.7.7,0,1,0,1.168-.783,9.146,9.146,0,0,0-4.739-3.6,4.781,4.781,0,1,0-5.723,0A9.145,9.145,0,0,0,.046,15.424,2.136,2.136,0,0,0,2.134,18H15.867a2.136,2.136,0,0,0,2.088-2.576ZM5.625,4.781A3.375,3.375,0,1,1,9.171,8.152L9,8.15l-.17,0A3.379,3.379,0,0,1,5.625,4.781Z" transform="translate(0)" fill="#a2a2a2"/>
    </g>
  </g>
</svg>
