<svg xmlns="http://www.w3.org/2000/svg" width="56.594" height="17.711" viewBox="0 0 56.594 17.711">
  <g id="visa" transform="translate(0 0)">
    <g id="Group_113" data-name="Group 113" transform="translate(5.288 0)">
      <g id="Group_112" data-name="Group 112">
        <path id="Path_1123" data-name="Path 1123" d="M45.107,100.23l-2.84,17.675h4.54l2.839-17.675Zm13.694,7.2c-1.587-.783-2.559-1.312-2.559-2.114.019-.729.822-1.475,2.616-1.475a7.9,7.9,0,0,1,3.382.654l.412.184.617-3.7a11.459,11.459,0,0,0-4.075-.729c-4.483,0-7.64,2.331-7.66,5.665-.037,2.46,2.26,3.825,3.979,4.644,1.756.84,2.354,1.385,2.354,2.131-.019,1.146-1.42,1.675-2.727,1.675a9.233,9.233,0,0,1-4.26-.911l-.6-.272-.635,3.843a14.178,14.178,0,0,0,5.063.913c4.765,0,7.865-2.3,7.9-5.849C62.63,110.143,61.418,108.65,58.8,107.43Zm16.106-7.145H71.395a2.25,2.25,0,0,0-2.373,1.422l-6.744,16.2h4.765l1.312-3.507h5.331l.681,3.521h4.2Zm-5.231,10.574c.092.009,1.829-5.725,1.829-5.725l1.383,5.725Zm-31.2-10.629-4.448,12.009-.485-2.368a13.2,13.2,0,0,0-6.279-7.177l4.073,15.194h4.8l7.138-17.656h-4.8Z" transform="translate(-27.262 -100.23)" fill="#2394bc"/>
      </g>
    </g>
    <path id="Path_1124" data-name="Path 1124" d="M10.07,102.524a2.966,2.966,0,0,0-2.953-2.276H.073L0,100.575c5.5,1.355,10.107,5.523,11.6,9.444Z" transform="translate(0 -100.245)" fill="#efc75e"/>
  </g>
</svg>
