<svg xmlns="http://www.w3.org/2000/svg" width="34" height="34" viewBox="0 0 34 34">
  <path id="wallet" d="M32.937,14.875H31.875V11.687A3.182,3.182,0,0,0,29.75,8.7V3.188A3.191,3.191,0,0,0,26.563,0H5.313A3.191,3.191,0,0,0,2.125,3.188V8.7A3.182,3.182,0,0,0,0,11.687V30.812A3.191,3.191,0,0,0,3.188,34h25.5a3.191,3.191,0,0,0,3.188-3.188V27.625h1.063A1.062,1.062,0,0,0,34,26.562V15.938a1.062,1.062,0,0,0-1.063-1.063ZM26.563,2.125a1.063,1.063,0,0,1,1.063,1.063V4.25A2.128,2.128,0,0,1,25.5,2.125ZM4.25,3.188A1.063,1.063,0,0,1,5.313,2.125H6.375A2.128,2.128,0,0,1,4.25,4.25ZM8.5,2.125H23.375a4.254,4.254,0,0,0,4.25,4.25V8.5H4.25V6.375A4.254,4.254,0,0,0,8.5,2.125ZM29.75,30.812a1.063,1.063,0,0,1-1.063,1.063H3.188a1.063,1.063,0,0,1-1.063-1.063V11.687a1.063,1.063,0,0,1,1.063-1.063h25.5a1.063,1.063,0,0,1,1.063,1.063v3.188H25.5a6.375,6.375,0,0,0,0,12.75h4.25ZM31.875,25.5H25.5a4.25,4.25,0,0,1,0-8.5h6.375Z" transform="translate(0)" fill="#2175bd"/>
</svg>
